<?xml version="1.0" encoding="utf-8"?>
<!-- Generator: Adobe Illustrator 22.1.0, SVG Export Plug-In . SVG Version: 6.00 Build 0)  -->
<svg version="1.1" id="Layer_1" xmlns="http://www.w3.org/2000/svg" xmlns:xlink="http://www.w3.org/1999/xlink" x="0px" y="0px"
	 viewBox="0 0 131 87" style="enable-background:new 0 0 131 87;" xml:space="preserve">
<style type="text/css">
	.st0{fill:#EE357A;}
	.st1{fill:none;stroke:#FFFFFF;stroke-miterlimit:10;stroke-dasharray:4.0241,4.0241;}
	.st2{fill:#FFFFFF;}
	.st3{fill:#27AAE1;}
	.st4{fill:#145571;}
</style>
<circle class="st0" cx="65.5" cy="43.5" r="43.5"/>
<g>
	<circle class="st1" cx="65.5" cy="43.5" r="41"/>
</g>
<g>
	<g>
		<path class="st2" d="M42.7,21.3v13.3H41V22.7h-4.8L35.9,28c-0.1,1.8-0.3,3.1-0.5,4c-0.3,0.9-0.7,1.5-1.2,2
			c-0.5,0.4-1.2,0.6-2.1,0.6h-0.6v-1.4l0.4,0c0.6,0,1-0.2,1.3-0.6c0.3-0.3,0.5-0.8,0.7-1.6s0.3-1.8,0.3-3.3l0.3-6.5H42.7z"/>
		<path class="st2" d="M48.9,32.1l2.3-7.4H53l-4,11.4c-0.6,1.6-1.6,2.5-2.9,2.5l-0.3,0l-0.6-0.1V37l0.5,0c0.6,0,1-0.1,1.3-0.3
			c0.3-0.2,0.6-0.7,0.8-1.3l0.4-1l-3.5-9.8h1.8L48.9,32.1z"/>
		<path class="st2" d="M62,34.6h-1.7V31c-0.7,0.2-1.5,0.3-2.3,0.3c-1.2,0-2.2-0.3-2.8-1c-0.6-0.6-1-1.5-1-2.7v-3h1.7v3
			c0,1.5,0.7,2.2,2.1,2.2c0.8,0,1.5-0.1,2.3-0.3v-4.9H62V34.6z"/>
		<path class="st2" d="M66.5,24.7v8.5h3.6v-8.5h1.7v8.5h3.6v-8.5h1.7v9.9H64.8v-9.9H66.5z"/>
		<path class="st2" d="M86.2,24.7h1.7v9.9h-1.7v-7.2l-4.6,7.2H80v-9.9h1.7v7.2L86.2,24.7z"/>
		<path class="st2" d="M97,24.7h1.7v9.9H97v-7.2l-4.6,7.2h-1.7v-9.9h1.7v7.2L97,24.7z M97.5,21.1c0,0.7-0.3,1.3-0.8,1.8
			c-0.5,0.4-1.2,0.7-2,0.7c-0.8,0-1.5-0.2-2-0.7c-0.5-0.5-0.8-1-0.8-1.8h1.4c0,0.4,0.1,0.8,0.3,1c0.2,0.2,0.6,0.4,1,0.4
			c0.4,0,0.8-0.1,1-0.4c0.2-0.2,0.4-0.6,0.4-1H97.5z"/>
	</g>
	<g>
		<path class="st2" d="M36.3,43.9c-0.1,0.6-0.3,1.1-0.7,1.5c-0.4,0.4-0.9,0.5-1.6,0.5c-0.7,0-1.3-0.3-1.7-0.8
			c-0.4-0.5-0.7-1.2-0.7-2.1v-0.6c0-0.6,0.1-1.1,0.3-1.5s0.5-0.8,0.9-1c0.4-0.2,0.8-0.3,1.3-0.3c0.6,0,1.2,0.2,1.6,0.5
			c0.4,0.4,0.6,0.9,0.7,1.5h-0.8c-0.1-0.5-0.2-0.8-0.5-1.1c-0.2-0.2-0.6-0.3-1-0.3c-0.5,0-0.9,0.2-1.2,0.6c-0.3,0.4-0.4,0.9-0.4,1.6
			v0.6c0,0.7,0.1,1.2,0.4,1.6c0.3,0.4,0.7,0.6,1.2,0.6c0.4,0,0.8-0.1,1-0.3c0.2-0.2,0.4-0.6,0.5-1.1H36.3z"/>
		<path class="st2" d="M40.3,45.9c0-0.1-0.1-0.2-0.1-0.5c-0.4,0.4-0.8,0.6-1.3,0.6c-0.4,0-0.8-0.1-1.1-0.4c-0.3-0.3-0.4-0.6-0.4-1
			c0-0.5,0.2-0.8,0.5-1.1c0.4-0.3,0.9-0.4,1.5-0.4h0.8v-0.4c0-0.3-0.1-0.5-0.2-0.6c-0.2-0.2-0.4-0.2-0.7-0.2c-0.3,0-0.5,0.1-0.7,0.2
			c-0.2,0.1-0.3,0.3-0.3,0.5h-0.8c0-0.2,0.1-0.4,0.2-0.7c0.2-0.2,0.4-0.4,0.7-0.5c0.3-0.1,0.6-0.2,0.9-0.2c0.5,0,0.9,0.1,1.2,0.4
			c0.3,0.3,0.4,0.6,0.5,1.1v2.1c0,0.4,0.1,0.7,0.2,1v0.1H40.3z M39,45.3c0.2,0,0.5-0.1,0.7-0.2s0.4-0.3,0.5-0.5v-0.9h-0.6
			c-1,0-1.4,0.3-1.4,0.8c0,0.2,0.1,0.4,0.2,0.6C38.5,45.2,38.8,45.3,39,45.3z"/>
		<path class="st2" d="M45.4,41.3h0.8v4.5h-0.8v-3.3l-2.1,3.3h-0.8v-4.5h0.8v3.3L45.4,41.3z M45.6,39.7c0,0.3-0.1,0.6-0.3,0.8
			c-0.2,0.2-0.5,0.3-0.9,0.3c-0.4,0-0.7-0.1-0.9-0.3c-0.2-0.2-0.3-0.5-0.3-0.8h0.6c0,0.2,0.1,0.3,0.2,0.5c0.1,0.1,0.3,0.2,0.5,0.2
			c0.2,0,0.3-0.1,0.5-0.2c0.1-0.1,0.2-0.3,0.2-0.5H45.6z"/>
		<path class="st2" d="M51,42h-1.5v3.9h-0.8V42h-1.5v-0.6H51V42z"/>
		<path class="st2" d="M57.7,41.4c0-0.3-0.1-0.6-0.4-0.8c-0.2-0.2-0.6-0.3-1-0.3c-0.4,0-0.7,0.1-0.9,0.3c-0.2,0.2-0.4,0.4-0.4,0.7
			h-0.8c0-0.3,0.1-0.6,0.3-0.9c0.2-0.3,0.4-0.5,0.7-0.6c0.3-0.1,0.7-0.2,1.1-0.2c0.7,0,1.2,0.2,1.6,0.5c0.4,0.3,0.6,0.7,0.6,1.3
			c0,0.3-0.1,0.5-0.3,0.8c-0.2,0.2-0.4,0.4-0.7,0.5c0.7,0.2,1.1,0.7,1.1,1.4c0,0.5-0.2,1-0.6,1.3c-0.4,0.3-1,0.5-1.6,0.5
			c-0.4,0-0.8-0.1-1.1-0.2c-0.3-0.1-0.6-0.3-0.8-0.6c-0.2-0.3-0.3-0.6-0.3-0.9H55c0,0.3,0.1,0.6,0.4,0.8c0.3,0.2,0.6,0.3,1,0.3
			c0.4,0,0.8-0.1,1.1-0.3c0.3-0.2,0.4-0.5,0.4-0.8c0-0.7-0.4-1.1-1.3-1.1h-0.8v-0.7h0.7c0.4,0,0.7-0.1,0.9-0.3
			C57.5,42,57.7,41.7,57.7,41.4z"/>
		<path class="st2" d="M63.5,45.9h-0.8v-1.9h-2.1v1.9h-0.8v-4.5h0.8v2h2.1v-2h0.8V45.9z"/>
		<path class="st2" d="M67.8,45.9c0-0.1-0.1-0.2-0.1-0.5c-0.4,0.4-0.8,0.6-1.3,0.6c-0.4,0-0.8-0.1-1.1-0.4c-0.3-0.3-0.4-0.6-0.4-1
			c0-0.5,0.2-0.8,0.5-1.1c0.4-0.3,0.9-0.4,1.5-0.4h0.8v-0.4c0-0.3-0.1-0.5-0.2-0.6c-0.2-0.2-0.4-0.2-0.7-0.2c-0.3,0-0.5,0.1-0.7,0.2
			c-0.2,0.1-0.3,0.3-0.3,0.5h-0.8c0-0.2,0.1-0.4,0.2-0.7c0.2-0.2,0.4-0.4,0.7-0.5c0.3-0.1,0.6-0.2,0.9-0.2c0.5,0,0.9,0.1,1.2,0.4
			c0.3,0.3,0.4,0.6,0.5,1.1v2.1c0,0.4,0.1,0.7,0.2,1v0.1H67.8z M66.5,45.3c0.2,0,0.5-0.1,0.7-0.2c0.2-0.1,0.4-0.3,0.5-0.5v-0.9H67
			c-1,0-1.4,0.3-1.4,0.8c0,0.2,0.1,0.4,0.2,0.6C66,45.2,66.2,45.3,66.5,45.3z"/>
		<path class="st2" d="M71.3,43.9h-0.6v1.9H70v-4.5h0.8v1.9h0.5l1.5-1.9h0.9l-1.8,2.2l1.9,2.4h-1L71.3,43.9z"/>
		<path class="st2" d="M74.5,43.5c0-0.4,0.1-0.8,0.3-1.2c0.2-0.4,0.4-0.6,0.7-0.8c0.3-0.2,0.7-0.3,1.1-0.3c0.6,0,1.1,0.2,1.5,0.6
			c0.4,0.4,0.6,1,0.6,1.7v0.1c0,0.4-0.1,0.8-0.3,1.2c-0.2,0.4-0.4,0.6-0.7,0.8c-0.3,0.2-0.7,0.3-1.1,0.3c-0.6,0-1.1-0.2-1.5-0.6
			C74.7,44.9,74.5,44.3,74.5,43.5L74.5,43.5z M75.3,43.6c0,0.5,0.1,0.9,0.3,1.2c0.2,0.3,0.5,0.5,0.9,0.5c0.4,0,0.7-0.2,0.9-0.5
			c0.2-0.3,0.3-0.7,0.3-1.3c0-0.5-0.1-0.9-0.4-1.2c-0.2-0.3-0.6-0.5-0.9-0.5c-0.4,0-0.7,0.2-0.9,0.5C75.4,42.6,75.3,43.1,75.3,43.6z
			"/>
		<path class="st2" d="M82.5,44.8l1.5-3.5h1v4.5h-0.8v-3.3l-1.5,3.3h-0.5l-1.5-3.4v3.4h-0.8v-4.5h1L82.5,44.8z"/>
		<path class="st2" d="M88.3,45.3c0.3,0,0.5-0.1,0.7-0.3s0.3-0.4,0.3-0.6h0.7c0,0.3-0.1,0.5-0.3,0.7c-0.2,0.2-0.4,0.4-0.7,0.6
			c-0.3,0.1-0.6,0.2-0.9,0.2c-0.6,0-1.1-0.2-1.5-0.6c-0.4-0.4-0.5-1-0.5-1.7v-0.1c0-0.4,0.1-0.8,0.2-1.2c0.2-0.3,0.4-0.6,0.7-0.8
			c0.3-0.2,0.7-0.3,1.1-0.3c0.5,0,0.9,0.2,1.3,0.5c0.3,0.3,0.5,0.7,0.5,1.2h-0.7c0-0.3-0.1-0.5-0.3-0.7c-0.2-0.2-0.4-0.3-0.7-0.3
			c-0.4,0-0.7,0.1-0.9,0.4C87.1,42.6,87,43,87,43.5v0.1c0,0.5,0.1,0.9,0.3,1.2S87.9,45.3,88.3,45.3z"/>
		<path class="st2" d="M94.6,42h-1.5v3.9h-0.8V42h-1.5v-0.6h3.8V42z"/>
		<path class="st2" d="M95.7,45.9v-4.5h1.8c0.6,0,1.1,0.1,1.4,0.3c0.3,0.2,0.5,0.5,0.5,0.9c0,0.2-0.1,0.4-0.2,0.6
			c-0.1,0.2-0.3,0.3-0.6,0.4c0.3,0.1,0.5,0.2,0.7,0.4c0.2,0.2,0.2,0.4,0.2,0.7c0,0.4-0.2,0.7-0.5,1c-0.3,0.2-0.7,0.3-1.3,0.3H95.7z
			 M96.4,43.2h1c0.7,0,1.1-0.2,1.1-0.6c0-0.4-0.3-0.6-1-0.7h-1.1V43.2z M96.4,43.9v1.4h1.3c0.3,0,0.6-0.1,0.7-0.2
			c0.2-0.1,0.2-0.3,0.2-0.5c0-0.5-0.3-0.7-1-0.7H96.4z"/>
	</g>
</g>
<rect x="16" y="50.9" class="st3" width="99" height="17"/>
<g>
	<polygon class="st3" points="27,73 27,55 0,61 10,68 3,77 	"/>
	<polygon class="st4" points="27,73 27,67.9 16,68 	"/>
</g>
<g>
	<polygon class="st3" points="104,73 104,55 131,61 121,68 128,77 	"/>
	<polygon class="st4" points="104,73 104,67.9 115,68 	"/>
</g>
<g>
	<path class="st2" d="M35.2,55.7h-3.8v1.7h1.4c1,0,1.8,0.2,2.4,0.7s0.9,1.1,0.9,2c0,0.8-0.3,1.5-0.9,2s-1.4,0.8-2.3,0.8h-3.2v-8.5
		h5.6V55.7z M31.4,58.8v2.6h1.4c0.4,0,0.8-0.1,1.1-0.4s0.4-0.6,0.4-1c0-0.4-0.1-0.7-0.4-0.9s-0.6-0.3-1.1-0.3H31.4z"/>
	<path class="st2" d="M40.3,63c-0.9,0-1.7-0.3-2.3-0.9s-0.9-1.3-0.9-2.3v-0.2c0-0.6,0.1-1.2,0.4-1.7s0.6-0.9,1-1.2s1-0.4,1.5-0.4
		c0.9,0,1.5,0.3,2,0.8s0.7,1.3,0.7,2.3v0.7h-4c0.1,0.4,0.2,0.7,0.5,1s0.6,0.4,1,0.4c0.7,0,1.2-0.2,1.5-0.7l0.8,0.9
		c-0.3,0.4-0.6,0.6-1,0.8S40.9,63,40.3,63z M40.1,57.7c-0.3,0-0.6,0.1-0.8,0.3s-0.3,0.6-0.4,1h2.4v-0.1c0-0.4-0.1-0.7-0.3-0.9
		S40.5,57.7,40.1,57.7z"/>
	<path class="st2" d="M46.9,61.6c0.3,0,0.6-0.1,0.8-0.3s0.3-0.4,0.3-0.7h1.6c0,0.4-0.1,0.8-0.4,1.2s-0.5,0.6-0.9,0.8
		S47.4,63,46.9,63c-0.9,0-1.6-0.3-2.1-0.9S44,60.7,44,59.7v-0.1c0-1,0.3-1.8,0.8-2.3s1.2-0.9,2.1-0.9c0.8,0,1.4,0.2,1.9,0.7
		s0.7,1,0.7,1.8H48c0-0.3-0.1-0.6-0.3-0.8s-0.5-0.3-0.8-0.3c-0.4,0-0.7,0.1-0.9,0.4c-0.2,0.3-0.3,0.8-0.3,1.4v0.2
		c0,0.7,0.1,1.1,0.3,1.4C46.2,61.4,46.5,61.6,46.9,61.6z"/>
	<path class="st2" d="M56.4,62.8h-1.7v-5h-2.1v5h-1.7v-6.3h5.5V62.8z"/>
	<path class="st2" d="M63.6,56.5v6.3h-1.7v-5h-1.5l-0.1,2c-0.1,1-0.3,1.8-0.6,2.3c-0.3,0.5-0.9,0.7-1.5,0.7h-0.6l0-1.4l0.2,0
		c0.3,0,0.5-0.2,0.7-0.5s0.2-0.9,0.3-1.7l0.1-2.7H63.6z"/>
	<path class="st2" d="M68.9,62.8c-0.1-0.2-0.1-0.3-0.2-0.6c-0.4,0.5-0.9,0.7-1.6,0.7c-0.6,0-1.1-0.2-1.5-0.5S65,61.6,65,61.1
		c0-0.7,0.2-1.2,0.7-1.5s1.2-0.5,2.2-0.5h0.8v-0.4c0-0.3-0.1-0.5-0.2-0.7s-0.4-0.3-0.7-0.3c-0.3,0-0.5,0.1-0.7,0.2s-0.2,0.3-0.2,0.6
		h-1.7c0-0.4,0.1-0.7,0.3-1s0.5-0.6,1-0.7s0.9-0.3,1.4-0.3c0.8,0,1.4,0.2,1.9,0.6s0.7,0.9,0.7,1.7v2.7c0,0.6,0.1,1.1,0.3,1.4v0.1
		H68.9z M67.5,61.7c0.2,0,0.5-0.1,0.7-0.2s0.4-0.3,0.5-0.4V60H68c-0.8,0-1.3,0.3-1.4,0.9l0,0.1c0,0.2,0.1,0.4,0.2,0.5
		S67.2,61.7,67.5,61.7z"/>
	<path class="st2" d="M77.2,57.9h-2v5h-1.7v-5h-2v-1.4h5.7V57.9z"/>
	<path class="st2" d="M83.9,62.8h-1.7v-2.4h-2.1v2.4h-1.7v-6.3h1.7V59h2.1v-2.5h1.7V62.8z"/>
	<path class="st2" d="M87.4,58.4h1.2c0.5,0,1,0.1,1.4,0.3s0.7,0.4,1,0.8s0.3,0.7,0.3,1.2c0,0.7-0.2,1.2-0.7,1.6s-1.2,0.6-2,0.6h-2.9
		v-6.3h1.7V58.4z M87.4,59.7v1.8h1.2c0.3,0,0.6-0.1,0.8-0.2c0.2-0.2,0.3-0.4,0.3-0.6c0-0.3-0.1-0.5-0.3-0.7
		c-0.2-0.2-0.4-0.2-0.8-0.2H87.4z M94,62.8h-1.7v-6.3H94V62.8z"/>
	<path class="st2" d="M99.7,56.5h1.7v6.3h-1.7v-3.9l-2.1,3.9h-1.7v-6.3h1.7v3.9L99.7,56.5z M100.7,53.9c0,0.5-0.2,0.9-0.6,1.3
		s-0.9,0.5-1.5,0.5s-1.1-0.2-1.5-0.5s-0.6-0.7-0.6-1.3h1.2c0,0.2,0.1,0.4,0.2,0.6s0.3,0.2,0.6,0.2c0.3,0,0.5-0.1,0.6-0.2
		s0.2-0.3,0.2-0.6H100.7z"/>
</g>
</svg>
