<?xml version="1.0" encoding="utf-8"?>
<!-- Generator: Adobe Illustrator 22.1.0, SVG Export Plug-In . SVG Version: 6.00 Build 0)  -->
<svg version="1.1" xmlns="http://www.w3.org/2000/svg" xmlns:xlink="http://www.w3.org/1999/xlink" x="0px" y="0px"
	 viewBox="0 0 195.4 35" style="enable-background:new 0 0 195.4 35;" xml:space="preserve">
<style type="text/css">
	.st0{fill:none;}
	.st1{fill:#ED1E79;}
	.st2{fill:#FFFFFF;}
</style>
<g id="Background">
</g>
<g id="Objects">
	<g>
		<g>
			<path class="st0" d="M18.3,5.6C18.3,5.6,18.3,5.6,18.3,5.6C18.3,5.6,18.3,5.6,18.3,5.6C18.3,5.6,18.3,5.6,18.3,5.6z"/>
			<path class="st1" d="M9.4,14.8c0.1-0.2,0.3-0.4,0.5-0.4c0.3,0,0.5,0.1,0.6,0.4l3.1,7.3l2.8-12.7c0.1-0.3,0.3-0.5,0.6-0.5
				c0,0,0,0,0,0c0.3,0,0.5,0.2,0.6,0.5l2.1,8.9l1.3-3.9c0.1-0.2,0.3-0.4,0.5-0.4c0.3,0,0.5,0.1,0.6,0.4l3,7.2l1.8-9
				c0.1-0.3,0.3-0.5,0.6-0.5c0.3,0,0.5,0.3,0.6,0.5l1.4,6.1H34c3.1-5.9,4.8-16.4-3.7-18.4c-8.6-2-11.8,4.9-12,5.2
				c-0.2-0.3-3.4-7.2-12-5.2c-9.5,2.2-6.3,15-2.6,20.2c0.2,0.3,0.4,0.6,0.6,0.9h2.7L9.4,14.8z M18.3,5.6C18.3,5.6,18.3,5.6,18.3,5.6
				C18.3,5.6,18.3,5.6,18.3,5.6C18.3,5.6,18.3,5.6,18.3,5.6z"/>
			<path class="st1" d="M28.3,19.2l-0.9-3.7l-1.6,8.2c0,0.3-0.3,0.5-0.5,0.5c-0.3,0-0.5-0.1-0.6-0.4l-3.2-7.5L20,20.7
				c-0.1,0.2-0.3,0.4-0.6,0.4c-0.3,0-0.5-0.2-0.5-0.5l-2-8.3l-2.6,12c-0.1,0.3-0.3,0.4-0.5,0.5c0,0,0,0-0.1,0
				c-0.2,0-0.4-0.1-0.5-0.4L10,16.7l-2.1,5.7c-0.1,0.2-0.3,0.4-0.6,0.4H5.3c6.5,8.4,12.9,12.1,13,12.2c0,0,0,0,0,0s0,0,0,0
				c0,0,0,0,0,0s0.1,0,0.1,0v0c0.5-0.3,7.7-4.6,14.5-14.4c0.2-0.3,0.4-0.7,0.6-1h-4.7C28.6,19.6,28.3,19.5,28.3,19.2z"/>
			<path class="st2" d="M1.5,21.5c-0.3,0-0.6,0.3-0.6,0.7c0,0.3,0.3,0.7,0.6,0.7h3.8c-0.3-0.4-0.7-0.9-1-1.3H1.5z"/>
			<path class="st2" d="M35,18.8h-1c-0.1,0.3-0.3,0.6-0.4,0.8H35c0.3,0,0.6-0.1,0.6-0.4S35.3,18.8,35,18.8z"/>
			<path class="st2" d="M29.3,18.8l-1.4-6.1c-0.1-0.3-0.3-0.5-0.6-0.5c-0.3,0-0.5,0.2-0.6,0.5l-1.8,9l-3-7.2
				c-0.1-0.2-0.3-0.4-0.6-0.4c-0.2,0-0.5,0.2-0.5,0.4l-1.3,3.9l-2.1-8.9c-0.1-0.3-0.3-0.5-0.6-0.5c0,0,0,0,0,0
				c-0.3,0-0.5,0.2-0.6,0.5l-2.8,12.7l-3.1-7.3c-0.1-0.2-0.3-0.4-0.6-0.4c-0.2,0-0.5,0.1-0.5,0.4l-2.4,6.6H4.3
				c0.3,0.5,0.7,0.9,1,1.3h2.1c0.2,0,0.5-0.2,0.6-0.4l2.1-5.7l3.2,7.7c0.1,0.2,0.3,0.4,0.5,0.4c0,0,0,0,0.1,0c0.3,0,0.5-0.2,0.5-0.5
				l2.6-12l2,8.3c0.1,0.3,0.3,0.4,0.5,0.5c0.3,0,0.5-0.2,0.6-0.4l1.5-4.4l3.2,7.5c0.1,0.2,0.3,0.4,0.6,0.4c0.3,0,0.5-0.2,0.5-0.5
				l1.6-8.2l0.9,3.7c0.1,0.3,0.3,0.3,0.6,0.3h4.7c0.2-0.3,0.3-0.5,0.4-0.8H29.3z"/>
		</g>
		<g>
			<path class="st2" d="M64.7,25.3c0.1,0.2,0.2,0.6,0.2,1c0,0.8-0.2,1.4-0.6,1.8c-1,1.3-2,2.2-2.9,2.7c-0.9,0.6-1.9,0.8-3,0.8
				c-2.1,0-3.6-1-4.6-3c-1-2-1.5-4.7-1.5-8c0-1.6,0.1-3.2,0.3-4.9c-0.9,3.3-1.9,6.1-2.9,8.4c-1,2.3-2.2,4.1-3.5,5.5
				c-1.4,1.4-2.9,2-4.7,2c-1.3,0-2.4-0.3-3.3-0.9c-0.9-0.6-1.7-1.5-2.1-2.6c-0.2-0.5-0.3-0.9-0.3-1.3c0-0.6,0.2-1.1,0.5-1.5
				c0.3-0.4,0.7-0.6,1.3-0.6c0.4,0,0.8,0.1,1,0.3c0.3,0.2,0.4,0.5,0.6,0.9c0.2,0.9,0.6,1.5,0.9,1.9c0.4,0.4,0.9,0.6,1.5,0.6
				c0.7,0,1.6-0.6,2.6-1.9c1-1.3,2-3.1,3.1-5.4c1.2-2.7,2.7-6.9,4.4-12.5C51.8,8,52.2,7.4,52.7,7c0.5-0.4,1.2-0.6,2-0.6
				c0.8,0,1.4,0.2,1.7,0.5c0.3,0.4,0.4,1,0.4,1.8c-0.3,4-0.4,7.3-0.4,9.7c0,3,0.2,5.4,0.7,7.1c0.4,1.7,1.2,2.6,2.3,2.6
				c0.6,0,1.2-0.2,1.8-0.6c0.6-0.4,1.3-1.1,2.2-2.2c0.2-0.3,0.5-0.4,0.8-0.4C64.4,24.9,64.6,25.1,64.7,25.3z"/>
			<path class="st2" d="M63.3,30.4c-0.7-0.9-1.1-2.1-1.1-3.5c0-1.6,0.4-3.1,1.1-4.5C64,21,65,19.8,66.2,19c1.2-0.9,2.5-1.3,3.9-1.3
				c0.4,0,0.7,0.1,0.9,0.3c0.1,0.2,0.3,0.5,0.4,0.9c0.4-0.1,0.8-0.1,1.3-0.1c1,0,1.5,0.3,1.5,1c0,0.4-0.1,1.4-0.4,3
				c-0.5,2.3-0.7,3.9-0.7,4.7c0,0.3,0.1,0.5,0.2,0.7c0.1,0.2,0.3,0.3,0.6,0.3c0.4,0,0.8-0.2,1.4-0.7c0.5-0.5,1.3-1.3,2.2-2.4
				c0.2-0.3,0.5-0.4,0.8-0.4c0.3,0,0.5,0.1,0.6,0.4c0.1,0.2,0.2,0.6,0.2,1c0,0.8-0.2,1.4-0.6,1.8c-0.8,1-1.7,1.9-2.6,2.6
				c-0.9,0.7-1.8,1-2.6,1c-0.7,0-1.3-0.2-1.8-0.7c-0.5-0.4-1-1.1-1.2-1.8c-1,1.7-2.3,2.5-3.9,2.5C65,31.7,64,31.3,63.3,30.4z
				 M68.5,27.9c0.4-0.5,0.7-1.2,0.9-2l1.1-5.5c-0.8,0-1.6,0.3-2.3,0.9c-0.7,0.6-1.3,1.4-1.7,2.4c-0.4,1-0.6,2-0.6,3.1
				c0,0.6,0.1,1.1,0.4,1.4c0.2,0.3,0.6,0.4,1,0.4C67.7,28.7,68.1,28.5,68.5,27.9z"/>
			<path class="st2" d="M92.9,22.8c0.1,0.3,0.2,0.6,0.2,1c0,0.5-0.1,0.9-0.2,1.1c-0.1,0.3-0.4,0.5-0.7,0.5c-1.2,0.4-2.5,0.7-3.9,0.7
				c-0.4,1.6-1.1,3-2.2,4c-1.1,1-2.3,1.5-3.6,1.5c-2,0-3.5-0.8-4.4-2.3c-0.9-1.5-1.4-3.7-1.4-6.6c0-2.6,0.3-5.3,0.9-8.3
				c0.6-3,1.6-5.5,2.8-7.7c1.2-2.1,2.7-3.2,4.3-3.2c0.9,0,1.6,0.4,2.2,1.2c0.6,0.8,0.8,1.8,0.8,3c0,1.6-0.3,3.2-0.9,4.8
				c-0.6,1.6-1.6,3.3-3.1,5c1.3,0.1,2.4,0.6,3.2,1.6c0.8,1,1.3,2.2,1.5,3.7c0.9-0.1,2-0.3,3.3-0.6c0.1,0,0.3-0.1,0.4-0.1
				C92.5,22.5,92.7,22.6,92.9,22.8z M84.2,27.8c0.5-0.5,0.8-1.3,0.9-2.2c-0.6-0.4-1.1-1-1.4-1.6c-0.3-0.7-0.5-1.4-0.5-2.1
				c0-0.3,0-0.7,0.1-1.1h-0.1c-0.8,0-1.5,0.4-2,1.2c-0.5,0.8-0.8,1.9-0.8,3.2c0,1.1,0.2,2,0.6,2.6c0.4,0.6,0.9,0.9,1.5,0.9
				C83.2,28.6,83.7,28.3,84.2,27.8z M82.8,8.4c-0.5,1.2-0.9,2.8-1.3,4.8c-0.4,2-0.7,4.2-0.9,6.6c1.3-2.4,2.3-4.5,3.1-6.3
				c0.8-1.8,1.2-3.5,1.2-4.9c0-0.6-0.1-1.1-0.2-1.5c-0.1-0.3-0.4-0.5-0.6-0.5C83.7,6.6,83.3,7.2,82.8,8.4z"/>
			<path class="st2" d="M120.1,18.5c-0.9,1.4-2.1,2.6-3.8,3.4c-1.7,0.9-3.6,1.4-5.9,1.6l-1.3,7.1c-0.5,2.7-1.8,4.1-4,4.1
				c-1.2,0-2.3-0.4-3.3-1.1c-1-0.7-1.8-1.8-2.4-3.3c-0.6-1.5-0.9-3.3-0.9-5.4c0-4,0.6-7.4,1.9-10.2c1.3-2.8,3-4.9,5.2-6.3
				c2.2-1.4,4.6-2.1,7.2-2.1c1.9,0,3.4,0.3,4.7,1c1.3,0.7,2.3,1.5,2.9,2.7c0.7,1.1,1,2.4,1,3.8C121.4,15.6,120.9,17.1,120.1,18.5z
				 M117,14.1c0-1.3-0.4-2.4-1.3-3.2c-0.9-0.8-2.2-1.2-4-1.2c-2,0-3.8,0.6-5.3,1.9c-1.5,1.3-2.7,3.1-3.5,5.4
				c-0.8,2.3-1.2,4.9-1.2,7.8c0,1.2,0.1,2.3,0.4,3.3c0.2,0.9,0.6,1.7,0.9,2.2c0.4,0.5,0.8,0.8,1.1,0.8c0.5,0,0.9-0.7,1.1-2l1-5.6
				c-0.8-0.1-1.1-0.2-1-0.1c-0.6-0.1-1-0.3-1.2-0.5c-0.2-0.3-0.3-0.6-0.3-1c0-0.4,0.1-0.8,0.4-1c0.2-0.3,0.6-0.4,1-0.4
				c0.2,0,0.3,0,0.4,0c0.5,0.1,0.8,0.1,1.1,0.1c0.3-1.5,0.6-3.6,1.1-6.2c0.1-0.7,0.4-1.2,0.8-1.4c0.4-0.3,0.9-0.4,1.5-0.4
				c0.7,0,1.1,0.1,1.4,0.4c0.3,0.2,0.4,0.6,0.4,1.2c0,0.3,0,0.6-0.1,0.8l-1,5.8C114.9,20,117,17.8,117,14.1z"/>
			<path class="st2" d="M134.6,25.3c0.1,0.2,0.2,0.6,0.2,1c0,0.8-0.2,1.4-0.6,1.8c-0.7,0.9-1.8,1.7-3.1,2.5
				c-1.3,0.8-2.8,1.1-4.3,1.1c-2.1,0-3.7-0.6-4.8-1.7c-1.1-1.1-1.7-2.7-1.7-4.6c0-1.4,0.3-2.6,0.9-3.8c0.6-1.2,1.4-2.1,2.4-2.8
				c1-0.7,2.2-1,3.5-1c1.1,0,2.1,0.3,2.8,1c0.7,0.7,1,1.6,1,2.8c0,1.4-0.5,2.5-1.5,3.5c-1,1-2.6,1.8-5,2.3c0.5,0.9,1.4,1.4,2.8,1.4
				c0.9,0,1.9-0.3,3-0.9c1.1-0.6,2.1-1.4,3-2.4c0.2-0.3,0.5-0.4,0.8-0.4C134.3,24.9,134.5,25.1,134.6,25.3z M124.7,21.9
				c-0.5,0.9-0.8,1.9-0.8,3.1v0.1c1.2-0.3,2.1-0.7,2.8-1.2c0.7-0.6,1-1.2,1-1.9c0-0.4-0.1-0.7-0.3-0.9c-0.2-0.2-0.5-0.3-0.8-0.3
				C125.8,20.6,125.2,21.1,124.7,21.9z"/>
			<path class="st2" d="M133.3,30.5c-0.6-0.8-0.8-1.8-0.8-3.1c0-1.5,0.1-2.8,0.3-4.1c0.2-1.2,0.5-2.5,1-3.9c0.2-0.6,0.5-1,0.8-1.3
				c0.4-0.3,0.9-0.4,1.7-0.4c0.4,0,0.7,0.1,0.9,0.2c0.2,0.1,0.3,0.3,0.3,0.6c0,0.2-0.1,0.7-0.3,1.6c-0.2,0.7-0.4,1.4-0.5,2
				c-0.4,2.1-0.6,3.5-0.6,4.2c0,0.4,0,0.7,0.1,0.9c0.1,0.2,0.3,0.3,0.5,0.3c0.3,0,0.7-0.3,1.1-0.9c0.4-0.6,0.9-1.5,1.4-2.7
				c0.5-1.2,1-2.7,1.5-4.4c0.2-0.6,0.4-1,0.7-1.3c0.3-0.3,0.8-0.4,1.5-0.4c0.5,0,0.8,0.1,0.9,0.2c0.2,0.1,0.3,0.3,0.3,0.6
				c0,0.5-0.2,1.8-0.7,4.1c-0.6,2.5-0.8,4.1-0.8,4.7c0,0.4,0.1,0.7,0.2,0.9c0.2,0.2,0.4,0.3,0.6,0.3c0.4,0,0.9-0.2,1.4-0.7
				c0.5-0.5,1.3-1.3,2.2-2.4c0.2-0.3,0.5-0.4,0.8-0.4c0.3,0,0.5,0.1,0.6,0.4c0.1,0.2,0.2,0.6,0.2,1c0,0.8-0.2,1.4-0.6,1.8
				c-0.9,1-1.8,1.9-2.7,2.6c-1,0.7-2.1,1-3.3,1c-0.9,0-1.6-0.4-2.1-1.1c-0.4-0.7-0.7-1.8-0.7-3.1c-0.3,1.3-0.8,2.4-1.5,3.1
				c-0.7,0.7-1.4,1.1-2.2,1.1C134.6,31.7,133.9,31.3,133.3,30.5z M136.3,15.2c-0.7-0.4-1.2-0.9-1.6-1.5c-0.4-0.6-0.6-1.3-0.6-2
				c0-0.5,0.2-0.9,0.5-1.2c0.3-0.3,0.7-0.5,1.2-0.5c0.5,0,0.9,0.1,1.1,0.4s0.4,0.6,0.6,1.2c0.2,0.8,0.7,1.2,1.6,1.2
				c0.9,0,1.7-0.3,2.4-0.8c0.7-0.5,1.2-1.2,1.5-1.9c0.2-0.4,0.3-0.7,0.5-0.8c0.2-0.2,0.5-0.3,0.8-0.3c0.3,0,0.5,0.1,0.8,0.3
				c0.2,0.2,0.3,0.5,0.3,0.8l-0.1,0.4c-0.2,0.8-0.6,1.6-1.1,2.4c-0.5,0.8-1.3,1.4-2.2,1.9c-0.9,0.5-2,0.8-3.3,0.8
				C137.8,15.8,137,15.6,136.3,15.2z"/>
			<path class="st2" d="M146.7,30.5c-0.3-0.8-0.5-2.1-0.5-3.8c0-2.6,0.4-5,1.1-7.3c0.2-0.6,0.5-1,0.9-1.3c0.4-0.3,1-0.4,1.7-0.4
				c0.4,0,0.7,0,0.8,0.1c0.2,0.1,0.2,0.3,0.2,0.6c0,0.3-0.1,1-0.4,2.1c-0.2,0.8-0.4,1.5-0.5,2.1c-0.1,0.6-0.2,1.3-0.3,2.2
				c0.5-1.5,1.2-2.8,1.9-3.9c0.7-1.1,1.5-1.9,2.3-2.4c0.8-0.5,1.5-0.8,2.2-0.8c0.7,0,1.2,0.2,1.5,0.5c0.3,0.3,0.4,0.8,0.4,1.5
				c0,0.6-0.2,1.8-0.6,3.4c-0.2,0.7-0.3,1.2-0.3,1.6c1-2.4,2.1-4.2,3.3-5.3c1.2-1.1,2.3-1.7,3.4-1.7c1.3,0,1.9,0.6,1.9,1.9
				c0,0.8-0.2,2.2-0.7,4.2c-0.4,1.7-0.6,2.9-0.6,3.4c0,0.8,0.3,1.2,0.9,1.2c0.4,0,0.9-0.2,1.4-0.7c0.5-0.5,1.3-1.3,2.2-2.4
				c0.2-0.3,0.5-0.4,0.8-0.4c0.3,0,0.5,0.1,0.6,0.4c0.1,0.2,0.2,0.6,0.2,1c0,0.8-0.2,1.4-0.6,1.8c-0.9,1-1.8,1.9-2.7,2.6
				c-1,0.7-2.1,1-3.3,1c-1,0-1.8-0.3-2.3-0.9c-0.5-0.6-0.8-1.4-0.8-2.5c0-0.6,0.1-1.5,0.4-3c0.3-1.2,0.4-2.1,0.4-2.6
				c0-0.3-0.1-0.5-0.3-0.5c-0.3,0-0.6,0.3-1.1,1c-0.5,0.7-0.9,1.5-1.4,2.6c-0.5,1.1-0.9,2.2-1.2,3.4c-0.2,0.9-0.5,1.6-0.8,1.9
				c-0.3,0.3-0.7,0.5-1.4,0.5c-0.7,0-1.1-0.3-1.5-0.9s-0.5-1.4-0.5-2.3c0-0.8,0.1-1.8,0.3-3.3c0.2-1.3,0.2-2.1,0.2-2.5
				c0-0.3-0.1-0.5-0.3-0.5c-0.3,0-0.7,0.4-1.1,1.1c-0.5,0.7-0.9,1.6-1.3,2.7c-0.4,1.1-0.8,2.2-1,3.3c-0.2,0.9-0.5,1.6-0.8,1.9
				c-0.3,0.3-0.7,0.5-1.3,0.5C147.5,31.7,147,31.3,146.7,30.5z"/>
			<path class="st2" d="M184.5,25.3c0.1,0.2,0.2,0.6,0.2,1c0,0.8-0.2,1.4-0.6,1.8c-0.9,1-1.8,1.9-2.8,2.6c-1,0.7-2.1,1-3.3,1
				c-1,0-1.8-0.3-2.2-0.9c-0.4-0.6-0.6-1.6-0.6-2.8c0-0.5,0-1.2,0.1-1.9c-1.7,0-2.9,0-3.6-0.1c0,0.6-0.1,0.9-0.1,1.2v0.6
				c0,1.2,0,2.1-0.1,2.6c0,0.5-0.2,0.9-0.4,1.1c-0.2,0.2-0.5,0.3-1,0.3c-0.8,0-1.3-0.4-1.6-1.2c-0.3-0.8-0.5-2.1-0.5-3.8
				c0-2.6,0.4-5,1.1-7.3c0.2-0.6,0.5-1,0.9-1.3c0.4-0.3,1-0.4,1.7-0.4c0.4,0,0.7,0,0.8,0.1c0.2,0.1,0.2,0.3,0.2,0.6
				c0,0.3-0.1,1-0.4,2.1c-0.2,0.7-0.3,1.4-0.4,2.4h3.8c0.2-0.9,0.5-2.1,0.9-3.6c0.2-0.6,0.4-1,0.7-1.3c0.3-0.3,0.8-0.4,1.5-0.4
				c0.5,0,0.8,0.1,0.9,0.2c0.2,0.1,0.3,0.3,0.3,0.6c0,0.5-0.2,1.8-0.7,4.1c-0.6,2.5-0.8,4.1-0.8,4.7c0,0.4,0.1,0.7,0.2,0.9
				c0.2,0.2,0.4,0.3,0.6,0.3c0.4,0,0.9-0.2,1.4-0.7c0.5-0.5,1.3-1.3,2.2-2.4c0.2-0.3,0.5-0.4,0.8-0.4
				C184.1,24.9,184.3,25.1,184.5,25.3z"/>
			<path class="st2" d="M190.2,18.3c0.8,0.5,1.1,1.3,1.1,2.3c0,0.9-0.2,1.6-0.5,2.1c-0.4,0.6-0.8,1-1.3,1.4
				c-0.5,0.3-1.1,0.7-1.9,1.1c-0.9,0.4-1.5,0.8-1.9,1.1c-0.4,0.3-0.6,0.7-0.6,1.3c0,0.4,0.2,0.7,0.5,0.9c0.3,0.2,0.9,0.3,1.7,0.3
				c1.2,0,2.3-0.3,3.5-0.9c1.2-0.6,2.2-1.4,3.1-2.5c0.2-0.3,0.5-0.4,0.8-0.4c0.3,0,0.5,0.1,0.6,0.4c0.1,0.2,0.2,0.6,0.2,1
				c0,0.7-0.2,1.3-0.6,1.8c-0.9,1.3-2.1,2.2-3.5,2.9c-1.4,0.7-2.9,1-4.5,1c-1.7,0-3.1-0.3-4-0.9c-0.9-0.6-1.4-1.6-1.4-2.9
				c0-0.9,0.2-1.6,0.5-2.2c0.4-0.6,0.8-1.1,1.3-1.5c0.5-0.4,1.2-0.8,2-1.2c0.8-0.4,1.4-0.8,1.8-1.1c0.4-0.3,0.6-0.7,0.6-1.2
				c0-0.3-0.1-0.5-0.3-0.6c-0.2-0.1-0.5-0.2-0.9-0.2c-0.4,0-0.7,0.1-1,0.2c-0.3,0.1-0.6,0.3-1,0.5c-0.2,0.1-0.4,0.2-0.6,0.3
				c-0.2,0.1-0.4,0.1-0.6,0.1c-0.4,0-0.7-0.1-0.9-0.4c-0.2-0.2-0.3-0.6-0.3-1c0-0.5,0.2-1,0.7-1.4c0.4-0.3,1-0.5,1.8-0.7
				c0.8-0.2,1.6-0.3,2.3-0.3C188.3,17.5,189.4,17.7,190.2,18.3z"/>
		</g>
	</g>
</g>
</svg>
