<?xml version="1.0" encoding="utf-8"?>
<!-- Generator: Adobe Illustrator 21.0.0, SVG Export Plug-In . SVG Version: 6.00 Build 0)  -->
<svg version="1.1" id="Layer_1" xmlns="http://www.w3.org/2000/svg" xmlns:xlink="http://www.w3.org/1999/xlink" x="0px" y="0px"
	 viewBox="0 0 302.4 135.4" style="enable-background:new 0 0 302.4 135.4;" xml:space="preserve">
<style type="text/css">
	.st0{fill:#6B6A6A;}
	.st1{fill:#EEA54B;}
</style>
<g>
	<path class="st0" d="M302.2,34.9c-0.2-12.3-12.7-18.7-33.7-18.7l0,0h-16.4c-21,0-33.5,6.4-33.7,18.7l-0.2,7.8V43v53h19.6
		c0,0,0-8.3,0-15.7h44.9c0,8.6,0,15.7,0,15.7h19.6V42.7h0L302.2,34.9z M237.9,66.4V56.2V43c0-0.1,0-0.2,0-0.2c0-3.8,2.1-9,11.6-9
		h21.7c9.5,0,11.6,5.2,11.6,9c0,1.2,0,11.9,0,23.6H237.9z"/>
	<g>
		<polygon class="st0" points="17.9,115.6 0,115.6 0,120 6.5,120 6.5,135.4 11.4,135.4 11.4,120 17.9,120 		"/>
		<rect x="241.3" y="115.6" class="st0" width="4.9" height="19.8"/>
		<polygon class="st0" points="180.7,131.1 167.6,131.1 167.6,115.6 162.7,115.6 162.7,135.4 167.6,135.4 167.6,135.4 180.7,135.4 
					"/>
		<path class="st0" d="M222.8,124.8v3.4h8.6c0,0,0,0.3,0,0.6c0,0.9-0.5,2.2-2.9,2.2h-8.1c-2.4,0-2.9-1.3-2.9-2.2c0,0,0-6.2,0-6.6
			c0-0.9,0.5-2.2,2.9-2.2h8.1c2.3,0,2.9,1.3,2.9,2.2c1,0,4.9,0,4.9,0l0-1.9c-0.1-3.1-3.2-4.7-8.4-4.7l0,0h-6.8
			c-5.2,0-8.3,1.6-8.4,4.7l0,1.9v6.6l0,1.9c0,3.1,3.2,4.7,8.4,4.7l0,0h6.8c5.2,0,8.3-1.6,8.4-4.7l0-1.9v-4H222.8z"/>
		<path class="st0" d="M158.2,122.3l-0.1-1.9c0-3.1-3.2-4.7-8.4-4.7l0,0H143c-5.2,0-8.3,1.6-8.4,4.7l0,1.9v6.6l0,1.9
			c0.1,3.1,3.2,4.7,8.4,4.7l0,0h6.8c5.2,0,8.3-1.6,8.4-4.7l0.1-1.9l0,0V122.3L158.2,122.3z M153.4,128.8c0,0.9-0.5,2.2-2.9,2.2h-8.1
			c-2.4,0-2.9-1.3-2.9-2.2c0-1,0-6.6,0-6.6c0-0.9,0.5-2.2,2.9-2.2h8.1c2.4,0,2.9,1.3,2.9,2.2C153.4,123.3,153.4,127.8,153.4,128.8z"
			/>
		<path class="st0" d="M207.7,122.3l0-1.9c0-3.1-3.2-4.7-8.4-4.7l0,0h-6.8c-5.2,0-8.3,1.6-8.4,4.7l-0.1,1.9v6.6l0.1,1.9
			c0,3.1,3.2,4.7,8.4,4.7l0,0h6.8c5.2,0,8.3-1.6,8.4-4.7l0-1.9l0,0V122.3L207.7,122.3z M202.9,128.8c0,0.9-0.5,2.2-2.9,2.2h-8.1
			c-2.4,0-2.9-1.3-2.9-2.2c0-1,0-6.6,0-6.6c0-0.9,0.5-2.2,2.9-2.2h8.1c2.3,0,2.9,1.3,2.9,2.2C202.9,123.3,202.9,127.8,202.9,128.8z"
			/>
		<path class="st0" d="M65.3,131.1h-8.1c-2.4,0-2.9-1.3-2.9-2.2c0-0.9,0-6.6,0-6.6c0-0.9,0.5-2.2,2.9-2.2h8.1c2.4,0,2.9,1.3,2.9,2.2
			c1,0,4.9,0,4.9,0l0-1.9c-0.1-3.1-3.2-4.7-8.4-4.7l0,0h-6.8c-5.2,0-8.3,1.6-8.4,4.7l0,1.9l0,0v6.6l0,0l0,1.9c0,3.1,3.2,4.7,8.4,4.7
			l0,0h6.8c5.2,0,8.3-1.6,8.4-4.7l0-1.9c0,0-3.9,0-4.9,0C68.2,129.8,67.7,131.1,65.3,131.1z"/>
		<path class="st0" d="M125.1,115.6v14.5c-1.3-1.7-11.3-12.1-12.2-13.2c-0.8-1-1.7-1.3-2.1-1.3h-4.9v19.8h4.9V121
			c1.3,1.7,11.3,12.1,12.2,13.2c0.8,1,1.7,1.3,2.1,1.3h4.9v-19.8H125.1z"/>
		<path class="st0" d="M26.2,122.3c0-0.9,0.5-2.2,2.9-2.2h8.1c2.4,0,2.9,1.3,2.9,2.2v1H26.2V122.3C26.2,122.3,26.2,122.8,26.2,122.3
			z M26.2,127.5h18.8v-4.2l0,0v-1l0,0l0-1.9c-0.1-3.1-3.2-4.7-8.4-4.7l0,0h-6.8c-5.2,0-8.3,1.6-8.4,4.7l0,1.9l0,0v6.6l0,0l0,1.9
			c0.1,3.1,3.2,4.7,8.4,4.7l0,0h6.8c5.2,0,8.3-1.6,8.4-4.7l0-1.9c0,0-3.9,0-4.9,0c0,0.9-0.5,2.2-2.9,2.2h-8.1
			c-2.3,0-2.9-1.3-2.9-2.2c0-0.8,0,0,0,0V127.5z"/>
		<path class="st0" d="M256.1,122.3c0-0.9,0.5-2.2,2.9-2.2h8.1c2.4,0,2.9,1.3,2.9,2.2v1h-13.9V122.3
			C256.1,122.3,256.1,122.8,256.1,122.3z M256.1,127.5h18.8v-4.2l0,0v-1l0,0l0-1.9c0-3.1-3.2-4.7-8.4-4.7l0,0h-6.8
			c-5.2,0-8.3,1.6-8.4,4.7l-0.1,1.9l0,0v6.6l0,0l0.1,1.9c0,3.1,3.2,4.7,8.4,4.7l0,0h6.8c5.2,0,8.3-1.6,8.4-4.7l0-1.9
			c0,0-3.9,0-4.9,0c0,0.9-0.5,2.2-2.9,2.2H259c-2.4,0-2.9-1.3-2.9-2.2c0-0.8,0,0,0,0V127.5z"/>
		<path class="st0" d="M283.5,122.7v-0.5c0,0,0,0.5,0,0c0-0.9,0.5-2.2,2.9-2.2h8.1c2.4,0,2.9,1.3,2.9,2.2c1,0,4.9,0,4.9,0l0-1.9
			c-0.1-3.1-3.2-4.7-8.4-4.7l0,0h-6.8c-5.2,0-8.3,1.6-8.4,4.7l0,1.9v3.3v1.2l1.5,0.1l17.3,1.3v0.7l0,0c0,0.9-0.5,2.2-2.9,2.2h-8.1
			c-2.4,0-2.9-1.3-2.9-2.2c-1,0-4.9,0-4.9,0l0,1.9c0.1,3.1,3.2,4.7,8.4,4.7l0,0h6.8c5.2,0,8.3-1.6,8.4-4.7l0-1.8l0-4.8L283.5,122.7z
			"/>
		<polygon class="st0" points="95.9,115.6 95.9,123.6 82.3,123.6 82.3,115.6 77.4,115.6 77.4,135.4 82.3,135.4 82.3,135.4 82.3,128 
			95.9,128 95.9,135.4 100.7,135.4 100.7,115.6 		"/>
	</g>
	<g>
		<path class="st1" d="M149.9,22.7c1.2,0.2,36.1,5,36.1,5l9.6-1.7l-47.5-8.4c-3.8-0.7-5.1-0.8-5.5-0.8c-1,0-4.4,0.6-5.6,0.8
			l-35.1,6.7c-7.2,1.6-7.4,9.1-7.4,10v12.8V73c0,5.2,4.4,7.6,7.1,8.2l39.1,7c1.2,0.2,1.7,0.2,1.9,0.2c0.2,0,0.7,0,1.8-0.2l39-7
			c4.8-0.8,7.2-4.1,7.2-9.8v-6.9v-3.2h-2.2H176v11.3c-0.1,1.3,0.1,6.6-6.4,7.7c-2.1,0.3-13,1.7-20.3,2.7c-2.5,0.3-5.6,0.5-6.8,0.5
			c-1.1,0-3.6-0.1-6-0.4c-8.1-1-21.4-2.7-21.4-2.7c-6.6-1.1-6.4-5.5-6.4-7.8v-7.7V34.7c0-3.4,1.6-7,5.9-7.9c0.2,0,19.9-3.8,20.7-4
			c0.9-0.2,3.9-0.8,7.1-0.8C145.8,22,148.7,22.5,149.9,22.7z"/>
		<polygon class="st1" points="125.4,59.3 140.6,59.3 140.6,43.7 125.4,44.5 		"/>
		<path class="st1" d="M201.1,17.2c0-2.4-1.2-4.2-3.8-4.8c0,0,0,0,0,0c-0.4-0.1-48.4-11.6-48.6-11.7c-1.2-0.3-3.5-0.7-6.1-0.7
			c-2.6,0-5,0.5-6.2,0.7c-0.2,0-33.3,8-33.7,8.1C92.1,11.2,84,14.4,84,31c0,5.3,0,37.4,0,42.3c0,17.9,6.3,21,15.3,23.6
			c0.1,0,23.5,4.8,37.5,7.7c0,0,0.1,0,0.1,0c1.3,0.3,3.4,0.6,5.6,0.6c2.3,0,4.4-0.3,5.7-0.6l0.1,0c0,0,37.4-7.6,37.5-7.7
			c14.1-3.2,15.3-11.4,15.3-23.6V46l-58.5-2.4v15.8H176h12.4h4.2v5.1v6.9c0,9.5-6.2,11.3-8.8,11.7l-35.4,6.3l-3.9,0.7
			c-0.9,0.1-1.5,0.2-1.9,0.2c-0.4,0-1.1-0.1-1.9-0.2l-5.5-1l-33.9-6.1c-4-0.9-8.6-4.3-8.6-10.1V42.9v-8.6c0-3.6,1.7-10.3,9-11.9
			l12.8-2.4l25.5-4.8c1.3-0.2,2.2-0.3,2.7-0.3c0.9,0,3,0.3,5.8,0.8l52.7,9.3V17.2z"/>
	</g>
	<polygon class="st0" points="67.1,30.3 67.1,16.2 44.2,16.2 24.5,16.2 0,16.2 0,30.3 24.5,30.3 24.5,81.8 0,81.8 0,96 24.5,96 
		44.2,96 67.1,96 67.1,81.8 44.2,81.8 44.2,30.3 	"/>
</g>
</svg>
