<?xml version="1.0" encoding="utf-8"?>
<!-- Generator: Adobe Illustrator 22.1.0, SVG Export Plug-In . SVG Version: 6.00 Build 0)  -->
<svg version="1.1" id="Layer_1" xmlns="http://www.w3.org/2000/svg" xmlns:xlink="http://www.w3.org/1999/xlink" x="0px" y="0px"
	 viewBox="0 0 100 100" style="enable-background:new 0 0 100 100;" xml:space="preserve">
<g>
	<path d="M87.8,11.9H12.2C5.5,11.9,0,17.4,0,24.2v51.6c0,6.7,5.5,12.2,12.2,12.2h75.5c6.7,0,12.2-5.5,12.2-12.2V24.2
		C100,17.5,94.6,11.9,87.8,11.9z M87.8,82.5H12.2c-3.7,0-6.6-3-6.6-6.6V24.2c0-3.7,3-6.6,6.6-6.6h75.5c3.7,0,6.6,3,6.6,6.6v51.6h0
		C94.4,79.5,91.5,82.5,87.8,82.5z"/>
	<path d="M63.1,49.4l24.5-21.9c1.1-1,1.2-2.8,0.2-3.9c-1-1.1-2.8-1.2-3.9-0.2L50.1,53.6l-6.6-5.9c0,0,0,0,0-0.1
		c-0.1-0.1-0.3-0.3-0.4-0.4l-26.8-24c-1.2-1-2.9-0.9-3.9,0.2c-1,1.2-0.9,2.9,0.2,3.9l24.8,22.1L12.6,72.6c-1.1,1.1-1.2,2.8-0.1,3.9
		c0.6,0.6,1.3,0.9,2,0.9c0.7,0,1.4-0.2,1.9-0.7l25-23.4l6.8,6.1c0.5,0.5,1.2,0.7,1.9,0.7c0.7,0,1.3-0.2,1.9-0.7l7-6.3l24.9,23.6
		c0.5,0.5,1.2,0.8,1.9,0.8c0.7,0,1.5-0.3,2-0.9c1.1-1.1,1-2.9-0.1-3.9L63.1,49.4z"/>
</g>
</svg>
