<?xml version="1.0" encoding="utf-8"?>
<!-- Generator: Adobe Illustrator 22.1.0, SVG Export Plug-In . SVG Version: 6.00 Build 0)  -->
<svg version="1.1" id="Layer_1" xmlns="http://www.w3.org/2000/svg" xmlns:xlink="http://www.w3.org/1999/xlink" x="0px" y="0px"
	 viewBox="0 0 100 100" style="enable-background:new 0 0 100 100;" xml:space="preserve">
<g>
	<g>
		<path d="M90.7,73.6L79.1,62c-2.1-2.1-4.5-3.3-7.2-3.3c-2.6,0-5.1,1.1-7.2,3.2L58,68.6c-0.5-0.3-1.1-0.6-1.6-0.8
			c-0.8-0.4-1.5-0.7-2.1-1.1c-6.2-4-11.9-9.2-17.4-15.9c-2.6-3.3-4.4-6.2-5.7-9c1.7-1.6,3.3-3.2,4.9-4.8c0.6-0.6,1.2-1.2,1.8-1.8
			c4.4-4.4,4.4-10.2,0-14.6l-5.8-5.8c-0.7-0.7-1.3-1.3-2-2c-1.3-1.3-2.6-2.7-4-3.9c-2.1-2-4.5-3.1-7.1-3.1S14,6.9,11.9,8.9l0,0
			l-7.2,7.2c-2.7,2.7-4.2,6-4.6,9.8c-0.5,6.2,1.3,11.9,2.7,15.7c3.4,9.2,8.6,17.8,16.2,27c9.2,11.1,20.4,19.8,33.1,25.9
			c4.9,2.3,11.3,5,18.6,5.5c0.5,0,0.9,0,1.3,0c4.9,0,9-1.8,12.2-5.2c0,0,0.1-0.1,0.1-0.1c1.1-1.3,2.4-2.5,3.7-3.8
			c0.9-0.9,1.8-1.8,2.8-2.7c2.1-2.2,3.2-4.7,3.2-7.3C93.9,78.3,92.8,75.8,90.7,73.6z M86.6,84.2c-0.8,0.9-1.7,1.7-2.6,2.6
			c-1.4,1.3-2.8,2.7-4.1,4.2c-2.1,2.3-4.6,3.4-7.9,3.4c-0.3,0-0.7,0-1,0c-6.3-0.4-12.1-2.9-16.5-4.9c-12-5.8-22.5-14-31.2-24.4
			c-7.2-8.7-12-16.7-15.2-25.4c-2-5.3-2.7-9.4-2.4-13.2c0.2-2.5,1.2-4.5,2.9-6.3l7.2-7.2c1-1,2.1-1.5,3.2-1.5c1.3,0,2.4,0.8,3.1,1.5
			l0.1,0.1c1.3,1.2,2.5,2.5,3.8,3.8c0.7,0.7,1.3,1.4,2,2.1l5.8,5.8c2.2,2.2,2.2,4.3,0,6.6c-0.6,0.6-1.2,1.2-1.8,1.8
			c-1.8,1.8-3.5,3.5-5.3,5.2c0,0-0.1,0.1-0.1,0.1c-1.8,1.8-1.5,3.6-1.1,4.8l0.1,0.2c1.5,3.6,3.6,7.1,6.8,11.1l0,0
			c5.8,7.2,12,12.8,18.8,17.1c0.9,0.5,1.8,1,2.6,1.4c0.8,0.4,1.5,0.7,2.1,1.1c0.1,0,0.2,0.1,0.2,0.2c0.7,0.4,1.4,0.5,2.1,0.5
			c1.8,0,2.9-1.1,3.2-1.5l7.2-7.2c0.7-0.7,1.8-1.6,3.2-1.6c1.3,0,2.4,0.8,3,1.5l11.7,11.7C88.8,79.8,88.8,82,86.6,84.2z"/>
	</g>
	<path d="M86.6,84.2"/>
	<path d="M54,23.7c5.5,0.9,10.6,3.5,14.6,7.6c4,4,6.6,9,7.6,14.6c0.2,1.4,1.4,2.4,2.8,2.4c0.2,0,0.3,0,0.5,0
		c1.6-0.2,2.6-1.7,2.3-3.3c-1.2-6.7-4.3-12.8-9.2-17.7c-4.9-4.9-10.9-8-17.7-9.2c-1.6-0.2-3,0.8-3.3,2.3C51.4,22,52.5,23.5,54,23.7
		L54,23.7z"/>
	<path d="M54,23.7"/>
	<path d="M100,44.1C98.1,33.1,92.9,23,84.9,15c-8-8-18-13.2-29.1-15.1c-1.5-0.3-3,0.8-3.3,2.3c-0.2,1.6,0.8,3,2.3,3.3
		c9.9,1.7,18.8,6.3,26,13.5c7.2,7.2,11.8,16.1,13.5,26c0.2,1.4,1.4,2.4,2.8,2.4c0.2,0,0.3,0,0.5,0C99.2,47.1,100.2,45.6,100,44.1
		L100,44.1z"/>
</g>
<path d="M50,50"/>
</svg>
