<?xml version="1.0" encoding="utf-8"?>
<!-- Generator: Adobe Illustrator 22.1.0, SVG Export Plug-In . SVG Version: 6.00 Build 0)  -->
<svg version="1.1" id="Layer_1" xmlns="http://www.w3.org/2000/svg" xmlns:xlink="http://www.w3.org/1999/xlink" x="0px" y="0px"
	 viewBox="0 0 100 100" style="enable-background:new 0 0 100 100;" xml:space="preserve">
<g>
	<path d="M50,0C27.9,0,9.9,18,9.9,40.1c0,2.5,0.2,5.1,0.7,7.5c0,0.2,0.1,0.6,0.3,1.4c0.6,2.7,1.5,5.4,2.7,7.9
		C17.9,67,27.4,82.7,48.2,99.4c0.5,0.4,1.1,0.6,1.8,0.6c0.6,0,1.3-0.2,1.8-0.6C72.6,82.7,82.1,67,86.4,56.9c1.2-2.5,2.1-5.2,2.7-7.9
		c0.2-0.8,0.2-1.2,0.3-1.4c0.5-2.5,0.7-5,0.7-7.5C90.1,18,72.1,0,50,0L50,0z M83.8,46.6c0,0,0,0.1,0,0.1c0,0.1-0.1,0.4-0.2,0.9v0
		c-0.5,2.3-1.3,4.6-2.3,6.8c0,0,0,0.1,0,0.1C77.3,63.9,68.7,78,50,93.5C31.3,78,22.7,63.9,18.8,54.6c0,0,0-0.1,0-0.1
		c-1-2.2-1.8-4.5-2.3-6.8v0c-0.1-0.5-0.2-0.8-0.2-0.9c0,0,0-0.1,0-0.2c-0.4-2.2-0.6-4.3-0.6-6.6c0-19,15.5-34.4,34.4-34.4
		C69,5.6,84.5,21,84.5,40C84.4,42.3,84.2,44.5,83.8,46.6L83.8,46.6z"/>
	<path d="M50,15.1c-14,0-25.4,11.4-25.4,25.4S36,65.9,50,65.9c14,0,25.4-11.4,25.4-25.4S64,15.1,50,15.1L50,15.1z M50,60.3
		c-10.9,0-19.8-8.9-19.8-19.8c0-10.9,8.9-19.8,19.8-19.8c10.9,0,19.8,8.9,19.8,19.8C69.8,51.4,60.9,60.3,50,60.3L50,60.3z"/>
</g>
</svg>
