<?xml version="1.0" encoding="utf-8"?>
<!-- Generator: Adobe Illustrator 21.0.0, SVG Export Plug-In . SVG Version: 6.00 Build 0)  -->
<svg version="1.1" id="Слой_1" xmlns="http://www.w3.org/2000/svg" xmlns:xlink="http://www.w3.org/1999/xlink" x="0px" y="0px"
	 viewBox="0 0 300 300" style="enable-background:new 0 0 300 300;" xml:space="preserve">
<style type="text/css">
	.st0{fill:#F4F4F4;}
	.st1{fill:none;}
	.st2{fill:#F9D02C;}
</style>
<g>
	<circle class="st0" cx="150" cy="150" r="150"/>
	<g>
		<path class="st1" d="M162.5,49.5c-1.9-5-6.8-8.5-12.4-8.5c-7.4,0-13.3,6-13.3,13.3v3h5.7C149.9,57.3,157,54.6,162.5,49.5z"/>
		<path class="st1" d="M152.9,122h32.2v-11.5c0-5.7-4.1-10.8-9.7-12l-14.6-3.2l-7.5,12.9c-0.7,1.2-2,1.9-3.4,1.9
			c-1.4,0-2.7-0.7-3.4-1.9l-7.5-12.9l-14.5,3.2c-5.6,1.2-9.7,6.3-9.7,12V122h6.8c2.2,0,3.9,1.7,3.9,3.9c0,0.7-0.2,1.3-0.5,1.9h8.8
			c-0.3-0.6-0.5-1.2-0.5-1.9c0-1,0.4-2,1.1-2.8c0.7-0.7,1.7-1.1,2.8-1.1c1,0,2,0.4,2.8,1.1c0.7,0.7,1.1,1.7,1.1,2.8
			c0,0.7-0.2,1.3-0.5,1.9h8.8c-0.3-0.6-0.5-1.2-0.5-1.9C149,123.7,150.8,122,152.9,122z"/>
		<path class="st1" d="M144.9,88.7v1.2l5.1,8.7l5.1-8.7v-1.2c-1.6,0.4-3.3,0.6-5,0.6C148.3,89.3,146.6,89.1,144.9,88.7z"/>
		<path class="st1" d="M150,81.5c7.4,0,13.3-6,13.3-13.3v-9.4c-6.1,4.2-13.4,6.4-20.9,6.4h-5.7v3C136.7,75.5,142.7,81.5,150,81.5z"
			/>
		<path class="st2" d="M233.8,205.3l-12.2-2.7l-6.5,12.5c-0.7,1.3-2,2.1-3.5,2.1c-1.5,0-2.8-0.8-3.5-2.1l-6.5-12.5l-12.3,2.7
			c-4.7,1-8.1,5.3-8.1,10.1v9.6h60.6v-9.6C241.9,210.5,238.5,206.3,233.8,205.3z"/>
		<path class="st2" d="M110.6,205.3l-12.3-2.7l-6.5,12.5c-0.7,1.3-2,2.1-3.5,2.1c-1.5,0-2.8-0.8-3.5-2.1l-6.5-12.5l-12.2,2.7
			c-4.7,1-8.1,5.3-8.1,10.1v9.6h60.6v-9.6C118.7,210.5,115.3,206.3,110.6,205.3z"/>
		<path d="M125.6,125.9c0-2.2-1.7-3.9-3.9-3.9H115v-11.5c0-5.7,4.1-10.8,9.7-12l14.5-3.2l7.5,12.9c0.7,1.2,2,1.9,3.4,1.9
			c1.4,0,2.7-0.7,3.4-1.9l7.5-12.9l14.6,3.2c5.6,1.2,9.7,6.3,9.7,12V122h-32.2c-2.2,0-3.9,1.7-3.9,3.9c0,0.7,0.2,1.3,0.5,1.9h42.9
			c0.3-0.6,0.5-1.2,0.5-1.9v-15.4c0-9.4-6.6-17.6-15.8-19.6l-14.3-3.1v-2.8c5.1-3.9,8.3-10,8.3-16.8V54.4c0-11.7-9.5-21.1-21.1-21.1
			s-21.1,9.5-21.1,21.1v13.8c0,6.8,3.2,12.8,8.2,16.7v2.9L123,90.9c-9.1,2-15.8,10.3-15.8,19.6v15.4c0,0.7,0.2,1.3,0.5,1.9h17.4
			C125.4,127.2,125.6,126.6,125.6,125.9z M155.1,89.9l-5.1,8.7l-5.1-8.7v-1.2c1.6,0.4,3.4,0.6,5.1,0.6c1.7,0,3.4-0.2,5-0.6V89.9z
			 M136.7,54.4c0-7.4,6-13.3,13.3-13.3c5.7,0,10.5,3.5,12.4,8.5c-5.5,5-12.5,7.8-20,7.8h-5.7V54.4z M136.7,68.2v-3h0h0h5.7
			c7.6,0,14.8-2.2,20.9-6.4v9.4c0,7.4-6,13.3-13.3,13.3C142.7,81.5,136.7,75.5,136.7,68.2z"/>
		<path d="M152.9,129.8H189c1.5,0,2.7-0.8,3.4-2h-42.9C150.2,129,151.4,129.8,152.9,129.8z"/>
		<path d="M111.1,129.8h10.7c1.5,0,2.7-0.8,3.4-2h-17.4C108.4,129,109.6,129.8,111.1,129.8z"/>
		<path d="M112.3,197.6l-12.2-2.7v-1.9c4.4-3.5,7.3-8.9,7.3-15v-12.1c0-10.5-8.5-19-19-19c-10.5,0-19,8.5-19,19v12.1
			c0,6,2.8,11.4,7.2,14.9v1.9l-12.1,2.6c-8.2,1.8-14.2,9.2-14.2,17.7v13.5c0,2.2,1.7,3.9,3.9,3.9h68.4c2.2,0,3.9-1.7,3.9-3.9v-13.5
			C126.5,206.9,120.5,199.5,112.3,197.6z M77.2,166.1c0-6.2,5-11.2,11.2-11.2c4.6,0,8.6,2.8,10.4,6.9c-4.7,4.2-10.7,6.5-17,6.5h-4.6
			V166.1z M77.2,176h4.6c6.4,0,12.6-1.8,17.9-5.2v7.4c0,6.2-5,11.2-11.2,11.2c-6.2,0-11.2-5-11.2-11.2V176z M92.3,196.8v0.4l-4,7.6
			l-4-7.6v-0.4c1.3,0.3,2.6,0.4,4,0.4C89.7,197.2,91.1,197,92.3,196.8z M118.7,225H58.1v-9.6c0-4.8,3.4-9,8.1-10.1l12.2-2.7
			l6.5,12.5c0.7,1.3,2,2.1,3.5,2.1c1.5,0,2.8-0.8,3.5-2.1l6.5-12.5l12.3,2.7c4.7,1,8.1,5.3,8.1,10.1V225z"/>
		<path d="M235.5,197.6l-12.1-2.7v-1.9c4.4-3.5,7.2-8.9,7.2-14.9v-12.1c0-10.5-8.5-19-19-19s-19,8.5-19,19v12.1
			c0,6.1,2.9,11.5,7.3,15v1.9l-12.2,2.7c-8.3,1.8-14.2,9.2-14.2,17.7v13.5c0,2.2,1.7,3.9,3.9,3.9h68.4c2.2,0,3.9-1.7,3.9-3.9v-13.5
			C249.7,206.9,243.7,199.5,235.5,197.6z M211.6,154.8c6.2,0,11.2,5,11.2,11.2v2.1h-4.6c-6.3,0-12.3-2.3-17-6.5
			C202.9,157.6,206.9,154.8,211.6,154.8z M200.3,170.8c5.3,3.4,11.5,5.2,17.9,5.2h4.6v2.2c0,6.2-5,11.2-11.2,11.2
			c-6.2,0-11.2-5-11.2-11.2V170.8z M215.6,196.8v0.4l-4,7.6l-4-7.6v-0.4c1.3,0.3,2.6,0.4,3.9,0.4C213,197.2,214.3,197,215.6,196.8z
			 M241.9,225h-60.6v-9.6c0-4.8,3.4-9,8.1-10.1l12.3-2.7l6.5,12.5c0.7,1.3,2,2.1,3.5,2.1c1.5,0,2.8-0.8,3.5-2.1l6.5-12.5l12.2,2.7
			c4.7,1,8.1,5.3,8.1,10.1V225z"/>
		<path d="M177.5,179.9c1,0,2-0.4,2.8-1.1c0.7-0.7,1.1-1.7,1.1-2.8c0-1-0.4-2-1.1-2.8c-0.7-0.7-1.7-1.1-2.8-1.1s-2,0.4-2.8,1.1
			c-0.7,0.7-1.1,1.7-1.1,2.8c0,1,0.4,2,1.1,2.8C175.4,179.5,176.5,179.9,177.5,179.9z"/>
		<path d="M161.8,172.1h-7.8v-26.6c0-2.2-1.7-3.9-3.9-3.9c-2.2,0-3.9,1.7-3.9,3.9v26.6h-23.5c-2.2,0-3.9,1.7-3.9,3.9
			c0,2.2,1.7,3.9,3.9,3.9h39.2c2.2,0,3.9-1.7,3.9-3.9C165.7,173.8,163.9,172.1,161.8,172.1z"/>
		<path d="M140.1,123.1c-0.7-0.7-1.7-1.1-2.8-1.1c-1,0-2,0.4-2.8,1.1c-0.7,0.7-1.1,1.7-1.1,2.8c0,0.7,0.2,1.3,0.5,1.9h6.8
			c0.3-0.6,0.5-1.2,0.5-1.9C141.2,124.9,140.8,123.9,140.1,123.1z"/>
		<path d="M134.6,128.6c0.7,0.7,1.7,1.1,2.8,1.1c1,0,2-0.4,2.8-1.1c0.3-0.3,0.5-0.6,0.6-0.9h-6.8
			C134.1,128.1,134.3,128.4,134.6,128.6z"/>
	</g>
</g>
</svg>
