<?xml version="1.0" encoding="utf-8"?>
<!-- Generator: Adobe Illustrator 21.0.0, SVG Export Plug-In . SVG Version: 6.00 Build 0)  -->
<svg version="1.1" id="Слой_1" xmlns="http://www.w3.org/2000/svg" xmlns:xlink="http://www.w3.org/1999/xlink" x="0px" y="0px"
	 viewBox="0 0 300 300" style="enable-background:new 0 0 300 300;" xml:space="preserve">
<style type="text/css">
	.st0{fill:#F4F4F4;}
	.st1{fill:#F9D02C;}
	.st2{fill:#FFFFFF;}
</style>
<g>
	<circle class="st0" cx="150" cy="150" r="150"/>
	<g>
		<rect x="115.5" y="83.8" class="st1" width="3.8" height="80.1"/>
		<rect x="122.4" y="171.9" class="st1" width="14.4" height="16.2"/>
		<rect x="199.5" y="145.7" class="st1" width="44.9" height="52.2"/>
		<rect x="115.5" y="171.9" class="st1" width="3.8" height="16.2"/>
		<path class="st1" d="M93.1,171.9c-2.2,0-4-1.8-4-4c0-2.2,1.8-4,4-4h10.5V83.8H63c-4.3,0-7.8,3.5-7.8,7.8v72.2H61c2.2,0,4,1.8,4,4
			c0,2.2-1.8,4-4,4h-5.8v8.3c0,4.3,3.5,7.8,7.8,7.8h40.5v-16.2H93.1z M80.8,168.6c-0.1,0.3-0.1,0.5-0.2,0.7
			c-0.1,0.2-0.2,0.5-0.4,0.7c-0.1,0.2-0.3,0.4-0.5,0.6c-0.2,0.2-0.4,0.4-0.6,0.5c-0.2,0.1-0.5,0.3-0.7,0.4c-0.2,0.1-0.5,0.2-0.7,0.2
			c-0.3,0.1-0.5,0.1-0.8,0.1c-0.3,0-0.5,0-0.8-0.1c-0.3-0.1-0.5-0.1-0.8-0.2c-0.2-0.1-0.5-0.2-0.7-0.4c-0.2-0.1-0.4-0.3-0.6-0.5
			c-0.2-0.2-0.4-0.4-0.5-0.6c-0.1-0.2-0.3-0.4-0.4-0.7c-0.1-0.2-0.2-0.5-0.2-0.7c-0.1-0.3-0.1-0.5-0.1-0.8c0-0.3,0-0.5,0.1-0.8
			c0.1-0.3,0.1-0.5,0.2-0.7c0.1-0.2,0.2-0.5,0.4-0.7c0.1-0.2,0.3-0.4,0.5-0.6c0.2-0.2,0.4-0.4,0.6-0.5c0.2-0.1,0.5-0.3,0.7-0.4
			c0.2-0.1,0.5-0.2,0.8-0.2c1.3-0.3,2.7,0.2,3.6,1.1c0.2,0.2,0.4,0.4,0.5,0.6c0.1,0.2,0.3,0.4,0.4,0.7c0.1,0.2,0.2,0.5,0.2,0.7
			c0.1,0.3,0.1,0.5,0.1,0.8C80.9,168.1,80.9,168.4,80.8,168.6z"/>
		<path class="st1" d="M136.8,163.9v-47.3c0-9.3,7.6-16.9,16.9-16.9h45.7v-8.1c0-4.3-3.5-7.8-7.8-7.8h-69.1v80.1H136.8z"/>
		<rect x="115.5" y="75.5" class="st1" width="3.8" height="0.3"/>
		<rect x="103.6" y="75.5" class="st2" width="11.9" height="0.3"/>
		<rect x="103.6" y="171.9" class="st2" width="11.9" height="16.2"/>
		<rect x="103.6" y="83.8" class="st2" width="11.9" height="80.1"/>
		<rect x="119.2" y="171.9" class="st2" width="3.2" height="16.2"/>
		<rect x="119.2" y="75.5" class="st2" width="3.2" height="0.3"/>
		<rect x="119.2" y="83.8" class="st2" width="3.2" height="80.1"/>
		<rect x="229.2" y="131.1" class="st2" width="3.2" height="80.1"/>
		<path d="M80.6,166.3c-0.1-0.2-0.2-0.5-0.4-0.7c-0.1-0.2-0.3-0.4-0.5-0.6c-0.9-0.9-2.3-1.4-3.6-1.1c-0.3,0.1-0.5,0.1-0.8,0.2
			c-0.2,0.1-0.5,0.2-0.7,0.4c-0.2,0.1-0.4,0.3-0.6,0.5c-0.2,0.2-0.4,0.4-0.5,0.6c-0.1,0.2-0.3,0.4-0.4,0.7c-0.1,0.2-0.2,0.5-0.2,0.7
			c-0.1,0.3-0.1,0.5-0.1,0.8c0,0.3,0,0.5,0.1,0.8c0.1,0.3,0.1,0.5,0.2,0.7c0.1,0.2,0.2,0.5,0.4,0.7c0.1,0.2,0.3,0.4,0.5,0.6
			c0.2,0.2,0.4,0.4,0.6,0.5c0.2,0.1,0.5,0.3,0.7,0.4c0.2,0.1,0.5,0.2,0.8,0.2c0.3,0.1,0.5,0.1,0.8,0.1c0.3,0,0.5,0,0.8-0.1
			c0.3-0.1,0.5-0.1,0.7-0.2c0.2-0.1,0.5-0.2,0.7-0.4c0.2-0.1,0.4-0.3,0.6-0.5c0.2-0.2,0.4-0.4,0.5-0.6c0.1-0.2,0.3-0.4,0.4-0.7
			c0.1-0.2,0.2-0.5,0.2-0.7c0.1-0.3,0.1-0.5,0.1-0.8c0-0.3,0-0.5-0.1-0.8C80.8,166.8,80.7,166.5,80.6,166.3z"/>
		<path d="M183.5,207.4c-0.2-0.1-0.4-0.3-0.7-0.4c-0.2-0.1-0.5-0.2-0.7-0.2c-1.3-0.3-2.7,0.2-3.6,1.1c-0.2,0.2-0.4,0.4-0.5,0.6
			c-0.1,0.2-0.3,0.4-0.4,0.7c-0.1,0.2-0.2,0.5-0.2,0.7c-0.1,0.3-0.1,0.5-0.1,0.8c0,0.3,0,0.5,0.1,0.8c0,0.3,0.1,0.5,0.2,0.7
			c0.1,0.2,0.2,0.5,0.4,0.7c0.1,0.2,0.3,0.4,0.5,0.6c0.2,0.2,0.4,0.4,0.6,0.5c0.2,0.1,0.4,0.3,0.7,0.4c0.2,0.1,0.5,0.2,0.8,0.2
			c0.3,0.1,0.5,0.1,0.8,0.1c0.3,0,0.5,0,0.8-0.1c0.3-0.1,0.5-0.1,0.7-0.2c0.2-0.1,0.5-0.2,0.7-0.4c0.2-0.1,0.4-0.3,0.6-0.5
			c0.2-0.2,0.4-0.4,0.5-0.6c0.1-0.2,0.3-0.4,0.4-0.7c0.1-0.2,0.2-0.5,0.2-0.7c0.1-0.3,0.1-0.5,0.1-0.8c0-1.1-0.4-2.1-1.2-2.8
			C183.9,207.7,183.7,207.5,183.5,207.4z"/>
		<path d="M174.1,119.8h14.3c2.2,0,4-1.8,4-4c0-2.2-1.8-4-4-4h-14.3c-2.2,0-4,1.8-4,4C170.1,118,171.9,119.8,174.1,119.8z"/>
		<path d="M218.2,212.2c0.1,0.2,0.2,0.5,0.4,0.7c0.1,0.2,0.3,0.4,0.5,0.6c0.2,0.2,0.4,0.4,0.6,0.5c0.2,0.1,0.5,0.3,0.7,0.4
			c0.2,0.1,0.5,0.2,0.8,0.2c0.3,0.1,0.5,0.1,0.8,0.1c0.3,0,0.5,0,0.8-0.1c0.3-0.1,0.5-0.1,0.7-0.2c0.2-0.1,0.5-0.2,0.7-0.4
			c0.2-0.1,0.4-0.3,0.6-0.5c0.2-0.2,0.3-0.4,0.5-0.6c0.1-0.2,0.3-0.4,0.4-0.7c0.1-0.2,0.2-0.5,0.2-0.7c0.1-0.3,0.1-0.5,0.1-0.8
			c0-0.3,0-0.5-0.1-0.8c-0.1-0.3-0.1-0.5-0.2-0.7c-0.1-0.2-0.2-0.5-0.4-0.7c-0.1-0.2-0.3-0.4-0.5-0.6c-0.2-0.2-0.4-0.4-0.6-0.5
			c-0.2-0.1-0.5-0.3-0.7-0.4c-0.2-0.1-0.5-0.2-0.7-0.2c-0.5-0.1-1-0.1-1.6,0c-0.3,0.1-0.5,0.1-0.8,0.2c-0.2,0.1-0.5,0.2-0.7,0.4
			c-0.2,0.1-0.4,0.3-0.6,0.5c-0.7,0.7-1.2,1.8-1.2,2.8c0,0.3,0,0.5,0.1,0.8C218.1,211.7,218.1,212,218.2,212.2z"/>
		<rect x="115.5" y="188.1" width="3.8" height="8"/>
		<rect x="115.5" y="163.9" width="3.8" height="8"/>
		<path d="M191.6,83.8c4.3,0,7.8,3.5,7.8,7.8v8.1h-45.7c-9.3,0-16.9,7.6-16.9,16.9v47.3h-14.4v8h14.4v16.2h-14.4v8h14.4v11.5
			c0,3.2,0.9,6.2,2.5,8.8l-23.9,0v0.6h-11.9v-29H63c-4.3,0-7.8-3.5-7.8-7.8v-8.3H61c2.2,0,4-1.8,4-4c0-2.2-1.8-4-4-4h-5.8V91.7
			c0-4.3,3.5-7.8,7.8-7.8h40.5v-8H63c-7.5,0-13.9,5.3-15.5,12.3v95.6c1.6,7,7.9,12.3,15.5,12.3h38.1L99,216.4l-9.1,0
			c-2.2,0-4,1.8-4,4c0,2.2,1.8,4,4,4l12.7,0c0,0,0,0,0,0c0,0,0,0,0,0l49.9,0c0.4,0,0.7,0,1.1,0l55.5-0.2h26.3
			c9.3,0,16.9-7.6,16.9-16.9v-67.2c0-9.3-7.6-16.9-16.9-16.9h-9.8v-6.8c0-9.3-7.6-16.9-16.9-16.9h-1.4v-8.1
			c0-8.7-7.1-15.9-15.9-15.9h-69.1v8H191.6z M144.9,131.4H194c-1.6,2.6-2.5,5.6-2.5,8.9V198h-46.6V131.4z M153.7,216.5
			c-0.2,0-0.5,0-0.7,0c-4.6-0.4-8.2-4.2-8.2-8.8V206h46.6v1.5c0,3.3,0.9,6.3,2.5,8.9L153.7,216.5z M244.4,207.5c0,4.9-4,8.8-8.9,8.8
			h-27.2c-4.9,0-8.8-4-8.8-8.8V206h44.9V207.5z M244.4,198h-44.9v-52.2h44.9V198z M235.6,131.4c4,0,7.4,2.6,8.5,6.3h-44.2
			c1.1-3.6,4.5-6.3,8.4-6.3H235.6z M208.9,107.8c4.9,0,8.9,4,8.9,8.8v6.8h-72.9v-6.8c0-4.9,4-8.8,8.9-8.8H208.9z"/>
		<rect x="115.5" y="75.8" width="3.8" height="8"/>
		<path d="M93.1,163.9c-2.2,0-4,1.8-4,4c0,2.2,1.8,4,4,4h10.5v-8H93.1z"/>
		<rect x="103.6" y="163.9" width="11.9" height="8"/>
		<polygon points="109.2,196.1 115.5,196.1 115.5,188.1 103.6,188.1 103.6,217.1 115.5,217.1 115.5,216.4 107.1,216.4 		"/>
		<rect x="103.6" y="75.8" width="11.9" height="8"/>
		<rect x="119.2" y="75.8" width="3.2" height="8"/>
		<rect x="119.2" y="163.9" width="3.2" height="8"/>
		<rect x="119.2" y="188.1" width="3.2" height="8"/>
	</g>
</g>
</svg>
