<?xml version="1.0" encoding="utf-8"?>
<!-- Generator: Adobe Illustrator 21.0.0, SVG Export Plug-In . SVG Version: 6.00 Build 0)  -->
<svg version="1.1" id="Слой_1" xmlns="http://www.w3.org/2000/svg" xmlns:xlink="http://www.w3.org/1999/xlink" x="0px" y="0px"
	 viewBox="0 0 300 300" style="enable-background:new 0 0 300 300;" xml:space="preserve">
<style type="text/css">
	.st0{fill:#F4F4F4;}
	.st1{fill:#F9D02C;}
</style>
<g>
	<circle class="st0" cx="150" cy="150" r="150"/>
	<g>
		<rect x="103.9" y="64.7" class="st1" width="92" height="70.8"/>
		<g>
			<path d="M201.3,129.1V70.4c0-6.4-5.2-11.6-11.6-11.6h-79.6c-6.4,0-11.6,5.2-11.6,11.6v58.7c0,6.4,5.2,11.6,11.6,11.6h79.6
				C196.1,140.7,201.3,135.5,201.3,129.1z M106.3,129.1V70.4c0-2.1,1.7-3.9,3.9-3.9h79.6c2.1,0,3.9,1.7,3.9,3.9v58.7
				c0,2.1-1.7,3.9-3.9,3.9h-79.6C108,133,106.3,131.3,106.3,129.1z"/>
			<path d="M164.2,111.4h-45.8c-2.1,0-3.9,1.7-3.9,3.9c0,2.1,1.7,3.9,3.9,3.9h45.8c2.1,0,3.9-1.7,3.9-3.9
				C168.1,113.1,166.4,111.4,164.2,111.4z"/>
			<path d="M180.6,111.4c-1,0-2,0.4-2.7,1.1c-0.7,0.7-1.1,1.7-1.1,2.7c0,1,0.4,2,1.1,2.7c0.7,0.7,1.7,1.1,2.7,1.1s2-0.4,2.7-1.1
				c0.7-0.7,1.1-1.7,1.1-2.7c0-1-0.4-2-1.1-2.7C182.6,111.8,181.6,111.4,180.6,111.4z"/>
			<path d="M180.6,74.3h-62.1c-2.1,0-3.9,1.7-3.9,3.9s1.7,3.9,3.9,3.9h62.1c2.1,0,3.9-1.7,3.9-3.9S182.7,74.3,180.6,74.3z"/>
			<path d="M180.6,92.8h-62.1c-2.1,0-3.9,1.7-3.9,3.9s1.7,3.9,3.9,3.9h62.1c2.1,0,3.9-1.7,3.9-3.9S182.7,92.8,180.6,92.8z"/>
			<path d="M96.6,184h-34c-6.4,0-11.6,5.2-11.6,11.6v34c0,6.4,5.2,11.6,11.6,11.6h34c6.4,0,11.6-5.2,11.6-11.6v-34
				C108.2,189.2,103,184,96.6,184z M100.5,229.5c0,2.1-1.7,3.9-3.9,3.9h-34c-2.1,0-3.9-1.7-3.9-3.9v-34c0-2.1,1.7-3.9,3.9-3.9h34
				c2.1,0,3.9,1.7,3.9,3.9V229.5z"/>
			<path d="M167,184h-34c-6.4,0-11.6,5.2-11.6,11.6v34c0,6.4,5.2,11.6,11.6,11.6h34c6.4,0,11.6-5.2,11.6-11.6v-34
				C178.6,189.2,173.4,184,167,184z M170.9,229.5c0,2.1-1.7,3.9-3.9,3.9h-34c-2.1,0-3.9-1.7-3.9-3.9v-34c0-2.1,1.7-3.9,3.9-3.9h34
				c2.1,0,3.9,1.7,3.9,3.9V229.5z"/>
			<path d="M237.3,184h-34c-6.4,0-11.6,5.2-11.6,11.6v34c0,6.4,5.2,11.6,11.6,11.6h34c6.4,0,11.6-5.2,11.6-11.6v-34
				C248.9,189.2,243.7,184,237.3,184z M241.2,229.5c0,2.1-1.7,3.9-3.9,3.9h-34c-2.1,0-3.9-1.7-3.9-3.9v-34c0-2.1,1.7-3.9,3.9-3.9h34
				c2.1,0,3.9,1.7,3.9,3.9V229.5z"/>
			<path d="M153.9,149.2c0-2.1-1.7-3.9-3.9-3.9c-2.1,0-3.9,1.7-3.9,3.9v4.7h-17c-2.1,0-3.9,1.7-3.9,3.9s1.7,3.9,3.9,3.9h17v10.5
				c0,2.1,1.7,3.9,3.9,3.9c2.1,0,3.9-1.7,3.9-3.9v-10.5h62.6v12.1c0,2.1,1.7,3.9,3.9,3.9c2.1,0,3.9-1.7,3.9-3.9v-12.1
				c0-4.3-3.5-7.7-7.7-7.7h-62.6V149.2z"/>
			<path d="M79.6,177.6c2.1,0,3.9-1.7,3.9-3.9v-12.1h17c2.1,0,3.9-1.7,3.9-3.9s-1.7-3.9-3.9-3.9h-17c-4.3,0-7.7,3.5-7.7,7.7v12.1
				C75.8,175.8,77.5,177.6,79.6,177.6z"/>
			<path d="M114.6,153.9c-1,0-2,0.4-2.7,1.1c-0.7,0.7-1.1,1.7-1.1,2.7c0,1,0.4,2,1.1,2.7c0.7,0.7,1.7,1.1,2.7,1.1c1,0,2-0.4,2.7-1.1
				c0.7-0.7,1.1-1.7,1.1-2.7c0-1-0.4-2-1.1-2.7C116.6,154.3,115.6,153.9,114.6,153.9z"/>
		</g>
	</g>
</g>
</svg>
