<?xml version="1.0" encoding="utf-8"?>
<!-- Generator: Adobe Illustrator 21.0.0, SVG Export Plug-In . SVG Version: 6.00 Build 0)  -->
<svg version="1.1" id="Слой_1" xmlns="http://www.w3.org/2000/svg" xmlns:xlink="http://www.w3.org/1999/xlink" x="0px" y="0px"
	 viewBox="0 0 300 300" style="enable-background:new 0 0 300 300;" xml:space="preserve">
<style type="text/css">
	.st0{fill:#F4F4F4;}
	.st1{fill:#F9D02C;}
	.st2{fill:#FFFFFF;}
	.st3{fill:#4D4C4C;}
	.st4{fill:none;}
</style>
<g>
	<circle class="st0" cx="150" cy="150" r="150"/>
	<g>
		<path class="st1" d="M159.8,145.5c0,0.4,0.1,0.7,0.1,1.1c0,4-2.4,7.6-6.1,9.1v18.6c0.8,0.3,1.6,0.8,2.3,1.3l20.9-11.6
			c0-0.3-0.1-0.7-0.1-1c0-4,2.4-7.6,6.1-9.1v-18.6c-0.8-0.3-1.6-0.8-2.3-1.3L159.8,145.5z"/>
		<path class="st1" d="M140.1,146.6c0-0.3,0-0.7,0.1-1.1L119.2,134c-0.7,0.5-1.5,1-2.3,1.3v18.6c3.6,1.5,6.1,5.2,6.1,9.1
			c0,0.3,0,0.7-0.1,1l20.9,11.6c0.7-0.5,1.5-1,2.3-1.3v-18.6C142.5,154.2,140.1,150.6,140.1,146.6z"/>
		<path class="st1" d="M241,101.7c2.1,0,3.9,1.7,3.9,3.9v28c0,2.1-1.7,3.9-3.9,3.9h-24.6c-1.1,0-2.2-0.5-2.9-1.3l-13.3,67.6h50.6
			v-1.9v-3.7v-110c0-1.4-1.2-2.6-2.6-2.6h-24.7l-3.2,16.2H241z M244.9,178.3c0,2.1-1.7,3.9-3.9,3.9h-24.6c-2.1,0-3.9-1.7-3.9-3.9
			v-28c0-2.1,1.7-3.9,3.9-3.9H241c2.1,0,3.9,1.7,3.9,3.9V178.3z"/>
		<path class="st1" d="M190.2,203.7h6.2l16.2-82v-16.1c0-2.1,1.7-3.9,3.9-3.9h0.1l3.2-16.2h-6.2L190.2,203.7z"/>
		<path class="st1" d="M123,127.2l20.9,11.6c1.7-1.4,3.9-2.1,6.1-2.1c2.2,0,4.4,0.7,6.1,2.1l20.9-11.6c0-0.4-0.1-0.7-0.1-1.1
			c0-0.3,0-0.7,0.1-1.1l-20.9-11.6c-1.7,1.4-3.9,2.1-6.1,2.1c-2.2,0-4.4-0.7-6.1-2.1L123,125.1c0,0.4,0.1,0.7,0.1,1.1
			C123,126.5,123,126.9,123,127.2z"/>
		<path class="st2" d="M196.8,126.2c0,4-2.4,7.6-6.1,9.1v18.6c3.6,1.5,6.1,5.2,6.1,9.1c0,5.5-4.4,9.9-9.9,9.9
			c-1.9,0-3.8-0.6-5.4-1.6l-6.4,32.3h15.1l23.3-118.1h-15.1l-6.4,32.2C194.9,119.5,196.8,122.6,196.8,126.2z"/>
		<circle class="st2" cx="186.9" cy="163.1" r="2.2"/>
		<polygon class="st2" points="180.3,253.7 180.3,253.6 180,253.6 		"/>
		<polygon class="st2" points="189.5,258.2 189.5,258 188.5,258 		"/>
		<polygon class="st2" points="220.4,101.7 223.5,85.5 219.7,85.5 216.5,101.7 		"/>
		<path class="st2" d="M212.6,133.5v-11.9l-16.2,82h3.8l13.3-67.6C213,135.4,212.6,134.5,212.6,133.5z"/>
		<path d="M102.1,81.7c0,2.1-1.7,3.9-3.9,3.9h100.1l1.5-7.7H98.3C100.4,77.8,102.1,79.6,102.1,81.7z"/>
		<polygon points="219.7,85.5 221.2,77.8 215,77.8 213.5,85.5 		"/>
		<path d="M248.2,85.5c1.4,0,2.6,1.2,2.6,2.6v110c0-2.1,1.7-3.9,3.9-3.9c2.1,0,3.9,1.7,3.9,3.9v-110c0-5.7-4.6-10.3-10.3-10.3h-23.2
			l-1.5,7.7H248.2z"/>
		<polygon points="213.5,85.5 215,77.8 199.9,77.8 198.4,85.5 		"/>
		<polygon points="219.7,85.5 223.5,85.5 225.1,77.8 221.2,77.8 		"/>
		<path d="M254.7,194.3c-2.1,0-3.9,1.7-3.9,3.9v3.7c0,2.1,1.7,3.9,3.9,3.9c2.1,0,3.9-1.7,3.9-3.9v-3.7
			C258.5,196,256.8,194.3,254.7,194.3z"/>
		<path d="M83.4,81.7c0,2.1,1.7,3.9,3.9,3.9h11c2.1,0,3.9-1.7,3.9-3.9c0-2.1-1.7-3.9-3.9-3.9h-11C85.1,77.8,83.4,79.6,83.4,81.7z"/>
		<path d="M86.3,101.7H61.7c-2.1,0-3.9,1.7-3.9,3.9v83.9c0,2.1,1.7,3.9,3.9,3.9h24.6c2.1,0,3.9-1.7,3.9-3.9v-83.9
			C90.1,103.4,88.4,101.7,86.3,101.7z M82.4,185.6H65.5v-66h16.9V185.6z M82.4,111.8H65.5v-2.4h16.9V111.8z"/>
		<path d="M216.4,101.7c-2.1,0-3.9,1.7-3.9,3.9v16.1L216.4,101.7L216.4,101.7z"/>
		<path d="M216.4,137.4H241c2.1,0,3.9-1.7,3.9-3.9v-28c0-2.1-1.7-3.9-3.9-3.9h-20.7l-6.8,34.4C214.3,136.9,215.3,137.4,216.4,137.4z
			 M220.3,109.4h16.9v2.4h-16.9V109.4z M220.3,119.5h16.9v10.1h-16.9V119.5z"/>
		<path class="st3" d="M213.6,136.1l6.8-34.4h-3.8l-3.9,19.9v11.9C212.6,134.5,213,135.4,213.6,136.1z"/>
		<path d="M241,146.5h-24.6c-2.1,0-3.9,1.7-3.9,3.9v28c0,2.1,1.7,3.9,3.9,3.9H241c2.1,0,3.9-1.7,3.9-3.9v-28
			C244.9,148.2,243.2,146.5,241,146.5z M237.2,174.5h-16.9v-10.1h16.9V174.5z M237.2,156.6h-16.9v-2.4h16.9V156.6z"/>
		<g>
			<path class="st4" d="M140.1,146.6c0-0.3,0-0.7,0.1-1.1L119.2,134c-0.7,0.5-1.5,1-2.3,1.3v18.6c3.6,1.5,6.1,5.2,6.1,9.1
				c0,0.3,0,0.7-0.1,1l20.9,11.6c0.7-0.5,1.5-1,2.3-1.3v-18.6C142.5,154.2,140.1,150.6,140.1,146.6z"/>
			<circle class="st4" cx="150" cy="146.6" r="2.2"/>
			<circle class="st4" cx="150" cy="183.5" r="2.2"/>
			<circle class="st4" cx="113.1" cy="126.2" r="2.2"/>
			<path class="st4" d="M123,127.2l20.9,11.6c1.7-1.4,3.9-2.1,6.1-2.1c2.2,0,4.4,0.7,6.1,2.1l20.9-11.6c0-0.4-0.1-0.7-0.1-1.1
				c0-0.3,0-0.7,0.1-1.1l-20.9-11.6c-1.7,1.4-3.9,2.1-6.1,2.1c-2.2,0-4.4-0.7-6.1-2.1L123,125.1c0,0.4,0.1,0.7,0.1,1.1
				C123,126.5,123,126.9,123,127.2z"/>
			<circle class="st4" cx="113.1" cy="163.1" r="2.2"/>
			<circle class="st4" cx="150" cy="105.7" r="2.2"/>
			<path class="st4" d="M159.8,145.5c0,0.4,0.1,0.7,0.1,1.1c0,4-2.4,7.6-6.1,9.1v18.6c0.8,0.3,1.6,0.8,2.3,1.3l20.9-11.6
				c0-0.3-0.1-0.7-0.1-1c0-4,2.4-7.6,6.1-9.1v-18.6c-0.8-0.3-1.6-0.8-2.3-1.3L159.8,145.5z"/>
			<path class="st4" d="M86.3,101.7H61.7c-2.1,0-3.9,1.7-3.9,3.9v83.9c0,2.1,1.7,3.9,3.9,3.9h24.6c2.1,0,3.9-1.7,3.9-3.9v-83.9
				C90.1,103.4,88.4,101.7,86.3,101.7z"/>
			<circle class="st4" cx="186.9" cy="126.2" r="2.2"/>
			<path class="st1" d="M98.3,85.5h-11H51.7c-1.4,0-2.6,1.2-2.6,2.6v115.5h42.7c0,0,0,0,0,0h11c0,0,0,0,0,0c2.1,0,3.9,1.7,3.9,3.9
				c0,2.1-1.7,3.9-3.9,3.9h5.7h8.7c-2-0.1-3.7-1.8-3.7-3.9c0-2.1,1.7-3.8,3.8-3.9c0,0,0,0,0,0s0,0,0,0c2.1,0,3.8,1.7,3.8,3.9
				c0,2.1-1.6,3.7-3.7,3.9h14.5c-2.1,0-3.9-1.7-3.9-3.9c0-2.1,1.7-3.9,3.9-3.9c0,0,0,0,0,0h11c0,0,0,0,0,0h31.8l6.4-32.3
				c-0.3-0.2-0.5-0.3-0.7-0.5l-20.9,11.6c0,0.3,0.1,0.7,0.1,1.1c0,5.5-4.4,9.9-9.9,9.9c-5.5,0-9.9-4.4-9.9-9.9c0-0.3,0-0.7,0.1-1.1
				l-20.9-11.6c-1.7,1.4-3.9,2.1-6.1,2.1c-5.5,0-9.9-4.4-9.9-9.9c0-4,2.4-7.6,6.1-9.1v-18.6c-3.6-1.5-6.1-5.2-6.1-9.1
				c0-5.5,4.4-9.9,9.9-9.9c2.2,0,4.4,0.7,6.1,2.1l20.9-11.6c0-0.3-0.1-0.7-0.1-1.1c0-5.5,4.4-9.9,9.9-9.9c5.5,0,9.9,4.4,9.9,9.9
				c0,0.4,0,0.7-0.1,1.1l20.9,11.6c1.7-1.4,3.9-2.1,6.1-2.1c1.9,0,3.7,0.5,5.2,1.5l6.4-32.2H98.3z M90.1,189.4
				c0,2.1-1.7,3.9-3.9,3.9H61.7c-2.1,0-3.9-1.7-3.9-3.9v-83.9c0-2.1,1.7-3.9,3.9-3.9h24.6c2.1,0,3.9,1.7,3.9,3.9V189.4z"/>
			<path d="M180.7,118.4l-20.9-11.6c0-0.3,0.1-0.7,0.1-1.1c0-5.5-4.4-9.9-9.9-9.9c-5.5,0-9.9,4.4-9.9,9.9c0,0.4,0,0.7,0.1,1.1
				l-20.9,11.6c-1.7-1.4-3.9-2.1-6.1-2.1c-5.5,0-9.9,4.4-9.9,9.9c0,4,2.4,7.6,6.1,9.1v18.6c-3.6,1.5-6.1,5.2-6.1,9.1
				c0,5.5,4.4,9.9,9.9,9.9c2.2,0,4.4-0.8,6.1-2.1l20.9,11.6c0,0.4-0.1,0.7-0.1,1.1c0,5.5,4.4,9.9,9.9,9.9c5.5,0,9.9-4.4,9.9-9.9
				c0-0.4,0-0.7-0.1-1.1l20.9-11.6c0.2,0.2,0.5,0.4,0.7,0.5l10.6-53.6c-1.5-0.9-3.3-1.5-5.2-1.5C184.6,116.3,182.5,117,180.7,118.4z
				 M150,103.5c1.2,0,2.2,1,2.2,2.2s-1,2.2-2.2,2.2c-1.2,0-2.2-1-2.2-2.2S148.8,103.5,150,103.5z M143.9,113.5
				c1.7,1.4,3.9,2.1,6.1,2.1c2.2,0,4.4-0.7,6.1-2.1l20.9,11.6c0,0.4-0.1,0.7-0.1,1.1c0,0.3,0,0.7,0.1,1.1l-20.9,11.6
				c-1.7-1.4-3.9-2.1-6.1-2.1c-2.2,0-4.4,0.7-6.1,2.1L123,127.2c0-0.3,0.1-0.7,0.1-1.1c0-0.3,0-0.7-0.1-1.1L143.9,113.5z
				 M113.1,165.3c-1.2,0-2.2-1-2.2-2.2c0-1.2,1-2.2,2.2-2.2c1.2,0,2.2,1,2.2,2.2C115.3,164.3,114.3,165.3,113.1,165.3z M113.1,128.4
				c-1.2,0-2.2-1-2.2-2.2c0-1.2,1-2.2,2.2-2.2c1.2,0,2.2,1,2.2,2.2C115.3,127.4,114.3,128.4,113.1,128.4z M146.1,174.3
				c-0.8,0.3-1.6,0.8-2.3,1.3L123,164.1c0-0.3,0.1-0.7,0.1-1c0-4-2.4-7.6-6.1-9.1v-18.6c0.8-0.3,1.6-0.8,2.3-1.3l20.9,11.6
				c0,0.4-0.1,0.7-0.1,1.1c0,4,2.4,7.6,6.1,9.1V174.3z M150,185.7c-1.2,0-2.2-1-2.2-2.2c0-1.2,1-2.2,2.2-2.2c1.2,0,2.2,1,2.2,2.2
				C152.2,184.7,151.2,185.7,150,185.7z M150,148.8c-1.2,0-2.2-1-2.2-2.2c0-1.2,1-2.2,2.2-2.2c1.2,0,2.2,1,2.2,2.2
				C152.2,147.8,151.2,148.8,150,148.8z M183,153.9c-3.6,1.5-6.1,5.2-6.1,9.1c0,0.3,0,0.7,0.1,1l-20.9,11.6c-0.7-0.5-1.5-1-2.3-1.3
				v-18.6c3.6-1.5,6.1-5.2,6.1-9.1c0-0.3,0-0.7-0.1-1.1l20.9-11.6c0.7,0.5,1.5,1,2.3,1.3V153.9z M189.1,126.2c0,1.2-1,2.2-2.2,2.2
				c-1.2,0-2.2-1-2.2-2.2c0-1.2,1-2.2,2.2-2.2C188.1,124,189.1,125,189.1,126.2z"/>
		</g>
		<path class="st3" d="M196.8,163.1c0-4-2.4-7.6-6.1-9.1v-18.6c3.6-1.5,6.1-5.2,6.1-9.1c0-3.6-1.9-6.7-4.7-8.4l-10.6,53.6
			c1.6,1,3.5,1.6,5.4,1.6C192.3,173,196.8,168.5,196.8,163.1z M184.7,163.1c0-1.2,1-2.2,2.2-2.2s2.2,1,2.2,2.2c0,1.2-1,2.2-2.2,2.2
			S184.7,164.3,184.7,163.1z"/>
		<path class="st1" d="M117.8,211.4c-0.1,0-0.1,0-0.2,0s-0.1,0-0.2,0h-8.7v4.8h26.2v-4.8h-2.6H117.8z"/>
		<path class="st1" d="M250.4,224.3c0.2,0,0.4-0.2,0.4-0.4v-12.5h-52.1l-2.5,12.9H250.4z"/>
		<polygon class="st1" points="188.6,211.4 186.1,224.3 192.3,224.3 194.9,211.4 		"/>
		<path class="st1" d="M143.3,211.4h-8.5v4.8h-26.2v-4.8h-5.7h-11H49.1v12.5c0,0.2,0.2,0.4,0.4,0.4H171l2.5-12.9H143.3z"/>
		<polygon class="st2" points="173.6,211.4 171,224.3 186.1,224.3 188.6,211.4 		"/>
		<polygon class="st2" points="192.3,224.3 196.2,224.3 198.7,211.4 194.9,211.4 		"/>
		<polygon class="st2" points="166.8,245.9 166.8,245.7 166.7,245.9 		"/>
		<path d="M166.7,245.9h-33.6V232h33.6v13.7l4.2-21.4H49.6c-0.2,0-0.4-0.2-0.4-0.4v-12.5h42.8c-2.1,0-3.9-1.7-3.9-3.9
			c0-2.1,1.7-3.9,3.9-3.9H49.1V88.1c0-1.4,1.2-2.6,2.6-2.6h35.5c-2.1,0-3.9-1.7-3.9-3.9c0-2.1,1.7-3.9,3.9-3.9H51.7
			c-5.7,0-10.3,4.6-10.3,10.3v135.7c0,4.5,3.7,8.2,8.2,8.2h75.9v13.9h-12.4c-2.1,0-3.9,1.7-3.9,3.9s1.7,3.9,3.9,3.9H180l-14.2-2.8
			L166.7,245.9z"/>
		<polygon points="186.1,224.3 184.6,232 190.8,232 192.3,224.3 		"/>
		<path d="M181.8,245.9l-1.5,7.7h6.2l1.5-7.5c-0.4-0.1-0.7-0.2-1.1-0.2H181.8z"/>
		<polygon points="194.9,211.4 196.4,203.7 190.2,203.7 188.6,211.4 		"/>
		<path d="M143.3,203.7c2.1,0,3.9,1.7,3.9,3.9c0,2.1-1.7,3.9-3.9,3.9h30.3l1.5-7.7H143.3z"/>
		<path d="M254.7,205.6c-2.1,0-3.9-1.7-3.9-3.9v1.9h-50.6l-1.5,7.7h52.1v12.5c0,0.2-0.2,0.4-0.4,0.4h-54.2l-1.5,7.7h55.8
			c4.5,0,8.2-3.7,8.2-8.2v-22.1C258.5,203.9,256.8,205.6,254.7,205.6z"/>
		<polygon points="174.5,245.9 174.5,232 184.6,232 186.1,224.3 171,224.3 166.8,245.7 166.8,245.9 166.7,245.9 165.8,250.8 
			180,253.6 180.3,253.6 181.8,245.9 		"/>
		<polygon points="173.6,211.4 188.6,211.4 190.2,203.7 175.1,203.7 		"/>
		<polygon points="192.3,224.3 190.8,232 194.6,232 196.2,224.3 		"/>
		<polygon points="194.9,211.4 198.7,211.4 200.2,203.7 196.4,203.7 		"/>
		<path d="M186.9,253.6c2.1,0,3.9-1.7,3.9-3.9c0-1.7-1.1-3.2-2.7-3.7l-1.5,7.5H186.9z"/>
		<polygon points="102.9,203.7 91.9,203.7 91.9,203.7 102.9,203.7 		"/>
		<path d="M106.8,207.5c0-2.1-1.7-3.9-3.9-3.9h-11c-2.1,0-3.9,1.7-3.9,3.9c0,2.1,1.7,3.9,3.9,3.9h11
			C105,211.4,106.8,209.6,106.8,207.5z"/>
		<polygon points="143.3,203.7 143.3,203.7 132.3,203.7 132.3,203.7 134.8,203.7 		"/>
		<path d="M147.1,207.5c0-2.1-1.7-3.9-3.9-3.9h-8.5h-2.6c-2.1,0-3.9,1.7-3.9,3.9c0,2.1,1.7,3.9,3.9,3.9h2.6h8.5
			C145.4,211.4,147.1,209.6,147.1,207.5z"/>
		<path d="M117.6,203.7C117.6,203.7,117.6,203.7,117.6,203.7L117.6,203.7C117.6,203.7,117.6,203.7,117.6,203.7z"/>
		<path d="M117.8,211.4h-0.4c0.1,0,0.1,0,0.2,0S117.7,211.4,117.8,211.4z"/>
		<path d="M121.5,207.5c0-2.1-1.7-3.8-3.8-3.9h0c-2.1,0-3.8,1.7-3.8,3.9c0,2.1,1.6,3.7,3.7,3.9h0.4
			C119.8,211.3,121.5,209.6,121.5,207.5z"/>
	</g>
</g>
</svg>
