<?xml version="1.0" encoding="utf-8"?>
<!-- Generator: Adobe Illustrator 21.0.0, SVG Export Plug-In . SVG Version: 6.00 Build 0)  -->
<svg version="1.1" id="Слой_1" xmlns="http://www.w3.org/2000/svg" xmlns:xlink="http://www.w3.org/1999/xlink" x="0px" y="0px"
	 viewBox="0 0 300 300" style="enable-background:new 0 0 300 300;" xml:space="preserve">
<style type="text/css">
	.st0{fill:#F4F4F4;}
	.st1{fill:#F9D02C;}
	.st2{fill:none;}
</style>
<g>
	<circle class="st0" cx="150" cy="150" r="150"/>
	<g>
		<path class="st1" d="M114.7,135c-2.5,0-4.5-2-4.5-4.5c0-2.5,2-4.5,4.5-4.5c0.1,0,0.2,0,0.3,0c2.3,0.2,4.2,2.1,4.2,4.5
			c0,2.4-1.8,4.3-4.2,4.4v0h17.7c-1.9-0.5-3.2-2.3-3.2-4.4c0-2.2,1.5-4,3.4-4.5H115H97.7h-1.1c0.4,0.1,0.8,0.2,1.1,0.4
			c1.4,0.8,2.3,2.3,2.3,4c0,1.8-0.9,3.3-2.3,4c-0.3,0.2-0.6,0.3-1,0.4h1H114.7z"/>
		<path class="st2" d="M141.8,234.9c0,4.5,3.7,8.2,8.2,8.2c4.5,0,8.2-3.7,8.2-8.2c0-4.5-3.7-8.2-8.2-8.2
			C145.5,226.7,141.8,230.4,141.8,234.9z"/>
		<path class="st1" d="M133.8,126c-0.3,0-0.6,0-0.9,0.1h68c-0.3-0.1-0.6-0.1-0.9-0.1H133.8z"/>
		<path class="st1" d="M133.8,135.2h66.1c0.4,0,0.8-0.1,1.1-0.2h-68.4C133,135.1,133.4,135.2,133.8,135.2z"/>
		<rect x="97.7" y="119.8" class="st1" width="17.3" height="6.3"/>
		<polygon class="st1" points="97.7,135 97.7,139 115,139 115,135 114.7,135 		"/>
		<path class="st1" d="M97.7,126.1v-6.3H115v6.3h17.8c0.3-0.1,0.6-0.1,0.9-0.1h66.1c0.3,0,0.6,0,0.9,0.1h29.4c3.8,0,6.9-3.1,6.9-6.9
			V81.9c0-3.8-3.1-6.9-6.9-6.9H69.7c-3.8,0-6.9,3.1-6.9,6.9v37.3c0,3.8,3.1,6.9,6.9,6.9h26.8H97.7z M224,105.2c0,2.5-2,4.5-4.5,4.5
			c-2.5,0-4.5-2-4.5-4.5c0-2.5,2-4.5,4.5-4.5C222,100.8,224,102.8,224,105.2z M213.2,91.3c2.5,0,4.5,2,4.5,4.5c0,2.5-2,4.5-4.5,4.5
			c-2.5,0-4.5-2-4.5-4.5C208.8,93.3,210.8,91.3,213.2,91.3z M211.4,105.2c0,2.5-2,4.5-4.5,4.5c-2.5,0-4.5-2-4.5-4.5
			c0-2.5,2-4.5,4.5-4.5C209.4,100.8,211.4,102.8,211.4,105.2z M200.6,91.3c2.5,0,4.5,2,4.5,4.5c0,2.5-2,4.5-4.5,4.5
			c-2.5,0-4.5-2-4.5-4.5C196.1,93.3,198.1,91.3,200.6,91.3z M198.7,105.2c0,2.5-2,4.5-4.5,4.5c-2.5,0-4.5-2-4.5-4.5
			c0-2.5,2-4.5,4.5-4.5C196.7,100.8,198.7,102.8,198.7,105.2z M188,91.3c2.5,0,4.5,2,4.5,4.5c0,2.5-2,4.5-4.5,4.5
			c-2.5,0-4.5-2-4.5-4.5C183.5,93.3,185.5,91.3,188,91.3z M186.1,105.2c0,2.5-2,4.5-4.5,4.5c-2.5,0-4.5-2-4.5-4.5
			c0-2.5,2-4.5,4.5-4.5C184.1,100.8,186.1,102.8,186.1,105.2z M175.3,91.3c2.5,0,4.5,2,4.5,4.5c0,2.5-2,4.5-4.5,4.5
			c-2.5,0-4.5-2-4.5-4.5C170.8,93.3,172.8,91.3,175.3,91.3z M173.4,105.2c0,2.5-2,4.5-4.5,4.5s-4.5-2-4.5-4.5c0-2.5,2-4.5,4.5-4.5
			S173.4,102.8,173.4,105.2z M162.6,91.3c2.5,0,4.5,2,4.5,4.5c0,2.5-2,4.5-4.5,4.5c-2.5,0-4.5-2-4.5-4.5
			C158.2,93.3,160.2,91.3,162.6,91.3z M72.8,100.5c0-8.6,7-15.5,15.5-15.5c8.6,0,15.5,7,15.5,15.5c0,8.6-7,15.5-15.5,15.5
			C79.8,116,72.8,109.1,72.8,100.5z"/>
		<path d="M103.9,100.5c0-8.6-7-15.5-15.5-15.5c-8.6,0-15.5,7-15.5,15.5c0,8.6,7,15.5,15.5,15.5C96.9,116,103.9,109.1,103.9,100.5z
			 M88.3,107.1c-3.6,0-6.6-3-6.6-6.6s3-6.6,6.6-6.6c3.6,0,6.6,3,6.6,6.6S92,107.1,88.3,107.1z"/>
		<circle cx="213.2" cy="95.7" r="4.5"/>
		<circle cx="200.6" cy="95.7" r="4.5"/>
		<path d="M215.1,105.2c0,2.5,2,4.5,4.5,4.5c2.5,0,4.5-2,4.5-4.5c0-2.5-2-4.5-4.5-4.5C217.1,100.8,215.1,102.8,215.1,105.2z"/>
		<path d="M202.5,105.2c0,2.5,2,4.5,4.5,4.5c2.5,0,4.5-2,4.5-4.5c0-2.5-2-4.5-4.5-4.5C204.5,100.8,202.5,102.8,202.5,105.2z"/>
		<path d="M188,100.2c2.5,0,4.5-2,4.5-4.5c0-2.5-2-4.5-4.5-4.5c-2.5,0-4.5,2-4.5,4.5C183.5,98.2,185.5,100.2,188,100.2z"/>
		<path d="M189.8,105.2c0,2.5,2,4.5,4.5,4.5c2.5,0,4.5-2,4.5-4.5c0-2.5-2-4.5-4.5-4.5C191.8,100.8,189.8,102.8,189.8,105.2z"/>
		<path d="M175.3,100.2c2.5,0,4.5-2,4.5-4.5c0-2.5-2-4.5-4.5-4.5c-2.5,0-4.5,2-4.5,4.5C170.8,98.2,172.8,100.2,175.3,100.2z"/>
		<path d="M177.1,105.2c0,2.5,2,4.5,4.5,4.5c2.5,0,4.5-2,4.5-4.5c0-2.5-2-4.5-4.5-4.5C179.2,100.8,177.1,102.8,177.1,105.2z"/>
		<circle cx="162.6" cy="95.7" r="4.5"/>
		<path d="M164.5,105.2c0,2.5,2,4.5,4.5,4.5s4.5-2,4.5-4.5c0-2.5-2-4.5-4.5-4.5S164.5,102.8,164.5,105.2z"/>
		<path class="st1" d="M133.8,135.2c-0.4,0-0.8-0.1-1.1-0.2H115v4H97.7v-4h-1h-27c-3.8,0-6.9,3.1-6.9,6.9v37.3
			c0,3.8,3.1,6.9,6.9,6.9h160.6c3.8,0,6.9-3.1,6.9-6.9v-37.3c0-3.8-3.1-6.9-6.9-6.9H201c-0.4,0.1-0.7,0.2-1.1,0.2H133.8z
			 M88.3,176.1c-8.6,0-15.5-7-15.5-15.5c0-8.6,7-15.5,15.5-15.5c8.6,0,15.5,7,15.5,15.5C103.9,169.1,96.9,176.1,88.3,176.1z
			 M158.2,155.8c0-2.5,2-4.5,4.5-4.5c2.5,0,4.5,2,4.5,4.5c0,2.5-2,4.5-4.5,4.5C160.2,160.3,158.2,158.3,158.2,155.8z M169,169.8
			c-2.5,0-4.5-2-4.5-4.5s2-4.5,4.5-4.5s4.5,2,4.5,4.5S171.4,169.8,169,169.8z M170.8,155.8c0-2.5,2-4.5,4.5-4.5c2.5,0,4.5,2,4.5,4.5
			c0,2.5-2,4.5-4.5,4.5C172.8,160.3,170.8,158.3,170.8,155.8z M181.6,169.8c-2.5,0-4.5-2-4.5-4.5s2-4.5,4.5-4.5c2.5,0,4.5,2,4.5,4.5
			S184.1,169.8,181.6,169.8z M183.5,155.8c0-2.5,2-4.5,4.5-4.5c2.5,0,4.5,2,4.5,4.5c0,2.5-2,4.5-4.5,4.5
			C185.5,160.3,183.5,158.3,183.5,155.8z M194.3,169.8c-2.5,0-4.5-2-4.5-4.5s2-4.5,4.5-4.5c2.5,0,4.5,2,4.5,4.5
			S196.7,169.8,194.3,169.8z M224,165.3c0,2.5-2,4.5-4.5,4.5c-2.5,0-4.5-2-4.5-4.5s2-4.5,4.5-4.5C222,160.9,224,162.9,224,165.3z
			 M213.2,151.4c2.5,0,4.5,2,4.5,4.5c0,2.5-2,4.5-4.5,4.5c-2.5,0-4.5-2-4.5-4.5C208.8,153.4,210.8,151.4,213.2,151.4z M211.4,165.3
			c0,2.5-2,4.5-4.5,4.5c-2.5,0-4.5-2-4.5-4.5s2-4.5,4.5-4.5C209.4,160.9,211.4,162.9,211.4,165.3z M205.1,155.8c0,2.5-2,4.5-4.5,4.5
			c-2.5,0-4.5-2-4.5-4.5c0-2.5,2-4.5,4.5-4.5C203.1,151.4,205.1,153.4,205.1,155.8z"/>
		<path d="M88.3,145c-8.6,0-15.5,7-15.5,15.5c0,8.6,7,15.5,15.5,15.5c8.6,0,15.5-7,15.5-15.5C103.9,152,96.9,145,88.3,145z
			 M88.3,167.2c-3.6,0-6.6-3-6.6-6.6s3-6.6,6.6-6.6c3.6,0,6.6,3,6.6,6.6S92,167.2,88.3,167.2z"/>
		<path d="M213.2,160.3c2.5,0,4.5-2,4.5-4.5c0-2.5-2-4.5-4.5-4.5c-2.5,0-4.5,2-4.5,4.5C208.8,158.3,210.8,160.3,213.2,160.3z"/>
		<path d="M196.1,155.8c0,2.5,2,4.5,4.5,4.5c2.5,0,4.5-2,4.5-4.5c0-2.5-2-4.5-4.5-4.5C198.1,151.4,196.1,153.4,196.1,155.8z"/>
		<path d="M215.1,165.3c0,2.5,2,4.5,4.5,4.5c2.5,0,4.5-2,4.5-4.5s-2-4.5-4.5-4.5C217.1,160.9,215.1,162.9,215.1,165.3z"/>
		<path d="M202.5,165.3c0,2.5,2,4.5,4.5,4.5c2.5,0,4.5-2,4.5-4.5s-2-4.5-4.5-4.5C204.5,160.9,202.5,162.9,202.5,165.3z"/>
		<path d="M192.4,155.8c0-2.5-2-4.5-4.5-4.5c-2.5,0-4.5,2-4.5,4.5c0,2.5,2,4.5,4.5,4.5C190.4,160.3,192.4,158.3,192.4,155.8z"/>
		<circle cx="194.3" cy="165.3" r="4.5"/>
		<path d="M179.8,155.8c0-2.5-2-4.5-4.5-4.5c-2.5,0-4.5,2-4.5,4.5c0,2.5,2,4.5,4.5,4.5C177.8,160.3,179.8,158.3,179.8,155.8z"/>
		<circle cx="181.6" cy="165.3" r="4.5"/>
		<path d="M167.1,155.8c0-2.5-2-4.5-4.5-4.5c-2.5,0-4.5,2-4.5,4.5c0,2.5,2,4.5,4.5,4.5C165.1,160.3,167.1,158.3,167.1,155.8z"/>
		<circle cx="169" cy="165.3" r="4.5"/>
		<path d="M114.7,135h0.3v0C114.9,135,114.8,135,114.7,135z"/>
		<path d="M145.5,199.3v19.1c-5.9,1.6-10.5,6.2-12.1,12.1H58.3c-2.5,0-4.5,2-4.5,4.5c0,2.5,2,4.5,4.5,4.5h75.2
			c2,7.4,8.8,12.6,16.5,12.6c7.7,0,14.5-5.3,16.5-12.6h75.2c2.5,0,4.5-2,4.5-4.5c0-2.5-2-4.5-4.5-4.5h-75.2
			c-1.6-5.9-6.2-10.5-12.1-12.1v-19.1H145.5z M158.2,234.9c0,4.5-3.7,8.2-8.2,8.2c-4.5,0-8.2-3.7-8.2-8.2c0-4.5,3.7-8.2,8.2-8.2
			C154.5,226.7,158.2,230.4,158.2,234.9z"/>
		<path d="M154.5,195.1h75.8c8.8,0,15.9-7.1,15.9-15.9v-37.3c0-4.3-1.8-8.4-4.9-11.4c3.2-3,4.9-7.1,4.9-11.4V81.9
			c0-8.8-7.1-15.9-15.9-15.9H69.7c-8.8,0-15.9,7.1-15.9,15.9v37.3c0,2.4,0.6,4.8,1.6,6.9h14.3c-3.8,0-6.9-3.1-6.9-6.9V81.9
			c0-3.8,3.1-6.9,6.9-6.9h160.6c3.8,0,6.9,3.1,6.9,6.9v37.3c0,3.8-3.1,6.9-6.9,6.9h-29.4c2,0.5,3.4,2.3,3.4,4.5
			c0,2.1-1.4,3.9-3.2,4.4h29.3c3.8,0,6.9,3.1,6.9,6.9v37.3c0,3.8-3.1,6.9-6.9,6.9H69.7c-3.8,0-6.9-3.1-6.9-6.9v-37.3
			c0-3.8,3.1-6.9,6.9-6.9H55.4c-1.1,2.1-1.6,4.5-1.6,6.9v37.3c0,8.8,7.1,15.9,15.9,15.9h75.8v4.2h8.9V195.1z"/>
		<path d="M129.4,130.6c0,2.1,1.4,3.9,3.2,4.4H201c1.9-0.5,3.2-2.3,3.2-4.4c0-2.2-1.5-4-3.4-4.5h-68
			C130.9,126.5,129.4,128.4,129.4,130.6z"/>
		<path d="M99.9,130.6c0-1.8-0.9-3.3-2.3-4v8.1C99,133.8,99.9,132.3,99.9,130.6z"/>
		<path d="M58.7,130.5c-1.4,1.3-2.5,2.8-3.3,4.5h14.3h27c0.3-0.1,0.7-0.2,1-0.4v-8.1c-0.4-0.2-0.7-0.4-1.1-0.4H69.7H55.4
			C56.3,127.7,57.4,129.2,58.7,130.5z"/>
		<path d="M119.2,130.6c0-2.4-1.8-4.3-4.2-4.5v8.9C117.3,134.8,119.2,132.9,119.2,130.6z"/>
		<path d="M115,126.1c-0.1,0-0.2,0-0.3,0c-2.5,0-4.5,2-4.5,4.5c0,2.5,2,4.5,4.5,4.5c0.1,0,0.2,0,0.3,0V126.1z"/>
	</g>
</g>
</svg>
