<?xml version="1.0" encoding="utf-8"?>
<!-- Generator: Adobe Illustrator 21.0.0, SVG Export Plug-In . SVG Version: 6.00 Build 0)  -->
<svg version="1.1" id="Слой_1" xmlns="http://www.w3.org/2000/svg" xmlns:xlink="http://www.w3.org/1999/xlink" x="0px" y="0px"
	 viewBox="0 0 300 300" style="enable-background:new 0 0 300 300;" xml:space="preserve">
<style type="text/css">
	.st0{fill:#F4F4F4;}
	.st1{fill:#F9D02C;}
</style>
<g>
	<circle class="st0" cx="150" cy="150" r="150"/>
	<g>
		<path class="st1" d="M192.7,132.1c2.7-2.7,4.2-6.2,4.2-10c0-3.8-1.5-7.3-4.2-10c-2.7-2.7-6.2-4.2-10-4.2c-3.8,0-7.3,1.5-10,4.2
			c-2.7,2.7-4.1,6.2-4.1,10c0,3.8,1.5,7.3,4.1,10c2.7,2.7,6.2,4.2,10,4.2C186.5,136.2,190,134.8,192.7,132.1z"/>
		<path class="st1" d="M112.3,154.6l8.7-42.1c1.1-5.1-0.2-10.3-3.5-14.3c-3.3-4-8.1-6.3-13.3-6.3c-5.2,0-10,2.3-13.3,6.3
			c-3.3,4-4.5,9.2-3.5,14.3l8.7,42.1H112.3z M101.7,146.4c0.7-0.7,1.7-1.2,2.8-1.2c1,0,2,0.4,2.8,1.2c0.7,0.7,1.2,1.7,1.2,2.8
			c0,1-0.4,2-1.2,2.8c-0.7,0.7-1.7,1.2-2.8,1.2c-1,0-2-0.4-2.8-1.2c-0.7-0.7-1.2-1.7-1.2-2.8C100.5,148.2,100.9,147.2,101.7,146.4z"
			/>
		<path class="st1" d="M150,200.2H99c-2.2,0-3.9-1.8-3.9-3.9c0-2.2,1.8-3.9,3.9-3.9h58.1v-1.3c0-7.1-5.8-12.9-12.9-12.9H63.1
			c-7.1,0-12.9,5.8-12.9,12.9v1.3h17.4c2.2,0,3.9,1.8,3.9,3.9c0,2.2-1.8,3.9-3.9,3.9h-8.9c1.6,4.6,6,7.9,11.1,7.9h69.1
			C144,208.1,148.4,204.8,150,200.2z M86.1,199.4c-0.7,0.7-1.7,1.2-2.8,1.2c-1,0-2-0.4-2.8-1.2c-0.7-0.7-1.2-1.7-1.2-2.8
			c0-1,0.4-2,1.2-2.8c0.7-0.7,1.7-1.2,2.8-1.2c1,0,2,0.4,2.8,1.2c0.7,0.7,1.2,1.7,1.2,2.8C87.2,197.7,86.8,198.7,86.1,199.4z"/>
		<path class="st1" d="M209,210.3v14.3l21.2-21.2h-14.3C212.1,203.5,209,206.6,209,210.3z"/>
		<path d="M231.9,61.9H112.3c-6.5,0-11.8,5.3-11.8,11.8v10.6c-6.1,0.9-11.6,4.1-15.6,8.9c-4.8,5.9-6.6,13.4-5.1,20.8l8.4,40.6
			c-5.4,0.7-9.6,5.3-9.6,10.9v4.8H63.1c-11.4,0-20.7,9.3-20.7,20.7v1.8c0,4.1,3.3,7.4,7.4,7.4h0.8c1.8,9,9.8,15.7,19.3,15.7h30.7
			v10.3c0,6.5,5.3,11.8,11.8,11.8h92.8c0.1,0,0.1,0,0.2,0c0.9-0.1,1.9-0.4,2.6-1.1l34.6-34.6c0.7-0.7,1.1-1.7,1.1-2.7
			c0,0,0-0.1,0-0.1V73.7C243.6,67.2,238.4,61.9,231.9,61.9z M87.6,112.5c-1.1-5.1,0.2-10.3,3.5-14.3c3.3-4,8.1-6.3,13.3-6.3
			c5.2,0,10,2.3,13.3,6.3c3.3,4,4.5,9.2,3.5,14.3l-8.7,42.1h-16L87.6,112.5z M86.6,165.6c0-1.7,1.4-3.1,3.1-3.1h26.1
			c1.7,0,3.1,1.4,3.1,3.1v4.8H86.6V165.6z M69.8,208.1c-5.1,0-9.5-3.3-11.1-7.9h8.9c2.2,0,3.9-1.8,3.9-3.9c0-2.2-1.8-3.9-3.9-3.9
			H50.2v-1.3c0-7.1,5.8-12.9,12.9-12.9h81.2c7.1,0,12.9,5.8,12.9,12.9v1.3H99c-2.2,0-3.9,1.8-3.9,3.9c0,2.2,1.8,3.9,3.9,3.9h51
			c-1.6,4.6-6,7.9-11.1,7.9H69.8z M209,224.6v-14.3c0-3.8,3.1-6.9,6.9-6.9h14.3L209,224.6z M235.8,195.6h-19.9
			c-8.1,0-14.7,6.6-14.7,14.7v19.9h-88.9c-2.2,0-3.9-1.8-3.9-3.9V216h30.5c9.5,0,17.5-6.8,19.3-15.8c3.8-0.3,6.9-3.5,6.9-7.3v-1.8
			c0-11.4-9.3-20.7-20.7-20.7h-17.5v-4.8c0-4.5-2.7-8.4-6.6-10.1l8.6-41.4c1.5-7.4-0.3-15-5.1-20.8c-3.9-4.8-9.3-7.9-15.3-8.9V73.7
			c0-2.2,1.8-3.9,3.9-3.9h119.5c2.2,0,3.9,1.8,3.9,3.9V195.6z"/>
		<path d="M104.5,153.1c1,0,2-0.4,2.8-1.2c0.7-0.7,1.2-1.7,1.2-2.8c0-1-0.4-2-1.2-2.8c-0.7-0.7-1.7-1.2-2.8-1.2c-1,0-2,0.4-2.8,1.2
			c-0.7,0.7-1.2,1.7-1.2,2.8c0,1,0.4,2,1.2,2.8C102.4,152.7,103.4,153.1,104.5,153.1z"/>
		<path d="M214,108c-2.1,0.7-3.2,2.9-2.6,4.9c3.4,10.8,0.5,22.4-7.4,30.4c-8,8-19.6,10.8-30.4,7.4c-2.1-0.6-4.3,0.5-4.9,2.6
			c-0.7,2.1,0.5,4.3,2.6,4.9c3.8,1.2,7.7,1.8,11.5,1.8c9.9,0,19.6-3.9,26.8-11.2c10.1-10.1,13.7-24.8,9.4-38.3
			C218.3,108.5,216.1,107.4,214,108z"/>
		<path d="M161.4,100.7c8-8,19.6-10.8,30.4-7.4c2.1,0.7,4.3-0.5,4.9-2.6c0.7-2.1-0.5-4.3-2.6-4.9c-13.6-4.3-28.3-0.7-38.3,9.4
			c-10.1,10.1-13.7,24.8-9.4,38.3c0.5,1.7,2.1,2.8,3.7,2.8c0.4,0,0.8-0.1,1.2-0.2c2.1-0.7,3.2-2.9,2.6-4.9
			C150.5,120.4,153.4,108.7,161.4,100.7z"/>
		<path d="M198.3,137.6c4.2-4.2,6.5-9.7,6.5-15.6c0-5.9-2.3-11.4-6.5-15.6c-4.2-4.2-9.7-6.5-15.6-6.5c-5.9,0-11.4,2.3-15.6,6.5
			c-4.2,4.2-6.5,9.7-6.5,15.6c0,5.9,2.3,11.4,6.5,15.6c4.2,4.2,9.7,6.5,15.6,6.5C188.6,144.1,194.1,141.8,198.3,137.6z M168.5,122.1
			c0-3.8,1.5-7.3,4.1-10c2.7-2.7,6.2-4.2,10-4.2c3.8,0,7.3,1.5,10,4.2c2.7,2.7,4.2,6.2,4.2,10c0,3.8-1.5,7.3-4.2,10
			c-2.7,2.7-6.2,4.2-10,4.2c-3.8,0-7.3-1.5-10-4.2C170,129.4,168.5,125.8,168.5,122.1z"/>
		<path d="M206.8,101.9c1,0,2.1-0.4,2.8-1.2l0,0c1.5-1.6,1.5-4-0.1-5.6c-1.6-1.5-4.1-1.5-5.6,0.1c-1.5,1.6-1.5,4.1,0.1,5.6
			C204.8,101.5,205.8,101.9,206.8,101.9z"/>
		<path d="M158.6,142.2c-1,0-2,0.4-2.8,1.2c-0.7,0.7-1.2,1.7-1.2,2.8c0,1,0.4,2,1.2,2.8c0.7,0.7,1.7,1.2,2.8,1.2c1,0,2-0.4,2.8-1.2
			c0.7-0.7,1.2-1.7,1.2-2.8c0-1-0.4-2-1.2-2.8C160.6,142.7,159.6,142.2,158.6,142.2z"/>
		<path d="M83.3,192.7c-1,0-2,0.4-2.8,1.2c-0.7,0.7-1.2,1.7-1.2,2.8c0,1,0.4,2,1.2,2.8c0.7,0.7,1.7,1.2,2.8,1.2c1,0,2-0.4,2.8-1.2
			c0.7-0.7,1.2-1.7,1.2-2.8c0-1-0.4-2-1.2-2.8C85.3,193.1,84.3,192.7,83.3,192.7z"/>
	</g>
</g>
</svg>
