<?xml version="1.0" encoding="utf-8"?>
<!-- Generator: Adobe Illustrator 21.0.0, SVG Export Plug-In . SVG Version: 6.00 Build 0)  -->
<svg version="1.1" id="Слой_1" xmlns="http://www.w3.org/2000/svg" xmlns:xlink="http://www.w3.org/1999/xlink" x="0px" y="0px"
	 viewBox="0 0 489.6 516.7" style="enable-background:new 0 0 489.6 516.7;" xml:space="preserve">
<style type="text/css">
	.st0{fill:#F8CA15;}
	.st1{fill:#EAAD00;}
	.st2{fill:url(#SVGID_1_);}
	.st3{fill:url(#SVGID_2_);}
	.st4{fill:#494949;}
	.st5{fill:#4D59A1;}
</style>
<g>
	<g>
		<g>
			<g>
				<g>
					<path class="st0" d="M318.2,510.2c-4.2,4.3-9,6.5-14.5,6.5c-3.3,0-6.4-0.7-9.2-2.1c-2.8-1.4-5.3-3.2-7.4-5.6
						c-2.1-2.3-3.7-5-4.9-8.1s-1.8-6.3-1.8-9.7c0-3.4,0.6-6.6,1.8-9.6c1.2-3,2.8-5.7,4.9-8c2.1-2.3,4.6-4.1,7.5-5.4
						c2.9-1.3,6-2,9.4-2c4.8,0,8.7,1,12,3c3.2,2,5.6,4.6,7.3,7.9l-6,4.3c-1.4-2.7-3.2-4.7-5.6-6.1c-2.4-1.4-5-2-7.8-2
						c-2.3,0-4.5,0.5-6.4,1.5c-1.9,1-3.5,2.3-4.9,4c-1.4,1.7-2.4,3.6-3.1,5.8c-0.7,2.2-1.1,4.5-1.1,6.9c0,2.5,0.4,4.9,1.2,7.1
						c0.8,2.2,1.9,4.1,3.4,5.7c1.4,1.6,3.1,2.9,5.1,3.9s4.1,1.4,6.4,1.4c2.5,0,4.9-0.6,7.2-1.7c2.3-1.2,4.5-3,6.6-5.5V497h-10.4
						v-5.8h17v25.1h-6.6V510.2z"/>
				</g>
			</g>
			<g>
				<g>
					<path class="st0" d="M354.4,509.6c2.6,0,4.8-0.5,6.5-1.5c1.7-1,3.1-2.4,4.2-4c1-1.7,1.8-3.5,2.2-5.7c0.4-2.1,0.7-4.3,0.7-6.5
						v-25.2h7.9v25.2c0,3.4-0.4,6.6-1.2,9.6c-0.8,3-2.1,5.6-3.8,7.9c-1.7,2.3-4,4-6.7,5.4c-2.7,1.3-6,2-9.8,2c-4,0-7.3-0.7-10-2.1
						c-2.7-1.4-4.9-3.2-6.6-5.5c-1.7-2.3-2.9-5-3.6-7.9c-0.7-3-1.1-6.1-1.1-9.3v-25.2h7.8v25.2c0,2.3,0.2,4.5,0.7,6.6
						c0.4,2.1,1.2,4,2.2,5.7c1,1.7,2.4,3,4.2,4C349.7,509.1,351.9,509.6,354.4,509.6z"/>
				</g>
			</g>
			<g>
				<g>
					<path class="st0" d="M386.3,516.3v-49.7h7.8v49.7H386.3z"/>
				</g>
			</g>
			<g>
				<g>
					<path class="st0" d="M405.4,516.3v-49.7H423c4,0,7.5,0.7,10.5,2c3,1.3,5.5,3.1,7.6,5.3c2,2.2,3.6,4.9,4.6,7.9
						c1,3,1.5,6.2,1.5,9.6c0,3.8-0.6,7.2-1.7,10.3c-1.1,3.1-2.8,5.7-4.9,7.8c-2.1,2.2-4.6,3.8-7.6,5c-3,1.2-6.3,1.8-10,1.8H405.4z
						 M439.3,491.4c0-2.6-0.4-5-1.1-7.2c-0.7-2.2-1.8-4.1-3.2-5.6c-1.4-1.6-3.1-2.8-5.1-3.7c-2-0.9-4.3-1.3-6.9-1.3h-9.8v35.8h9.8
						c2.6,0,4.9-0.5,7-1.4c2-0.9,3.7-2.2,5.1-3.8c1.4-1.6,2.4-3.5,3.1-5.7C438.9,496.3,439.3,494,439.3,491.4z"/>
				</g>
			</g>
			<g>
				<g>
					<path class="st0" d="M489.6,509.4v6.9h-34.1v-49.7h33.5v6.9h-25.6v14.1h22.2v6.5h-22.2v15.2H489.6z"/>
				</g>
			</g>
		</g>
	</g>
	<path class="st0" d="M71.2,175.9l34.7,20.1c6.7,3.9,6.7,10.2,0,14l-34.7,20c-6.7,3.9-17.6,10.2-24.3,14l-2.9,1.7v11.3
		c0,7.7,5.5,10.9,12.2,7l34.7-20.1c6.7-3.9,17.6-10.2,24.3-14l34.7-20c6.7-3.9,6.7-10.2,0-14l-34.7-20.1c-6.7-3.9-17.6-10.2-24.3-14
		l-34.7-20.1c-6.7-3.9-12.2-0.7-12.2,7v11.4l2.9,1.7C53.6,165.8,64.5,172.1,71.2,175.9z"/>
	<path class="st0" d="M44,217.1c0-7.7,0-20.3,0-28.1v-28.8l-31.8-18.4C5.5,138,0,141.1,0,148.9V189c0,7.7,0,20.4,0,28.1v40.1
		c0,7.7,5.5,10.9,12.1,7L44,245.8V217.1z"/>
	<path class="st1" d="M44,217.1v28.7l2.9-1.7c6.7-3.9,17.6-10.2,24.3-14l34.7-20c6.7-3.9,6.7-10.2,0-14l-34.7-20.1
		c-6.7-3.9-17.6-10.2-24.3-14l-2.9-1.7V189C44,196.7,44,209.3,44,217.1z"/>
	<g>
		<linearGradient id="SVGID_1_" gradientUnits="userSpaceOnUse" x1="82.0742" y1="76.9771" x2="430.8375" y2="76.9771">
			<stop  offset="0" style="stop-color:#3F56A7"/>
			<stop  offset="1" style="stop-color:#8ECCD8"/>
		</linearGradient>
		<path class="st2" d="M130.6,141.8c-1.8,4-3.4,8-4.6,12.2h28.3c1.3-4.2,2.8-8.2,4.6-12.2c0.2-0.4,0.4-0.8,0.6-1.2
			c1.8-3.9,4-7.7,6.3-11.4c0-0.1,0.1-0.1,0.1-0.2c0.7-1.2,1.5-2.3,2.3-3.5c0.1-0.2,0.2-0.3,0.3-0.5c0.7-1,1.5-2.1,2.3-3.1
			c0.2-0.3,0.5-0.6,0.7-0.9c0.7-0.9,1.4-1.7,2.1-2.6c0.4-0.5,0.9-1,1.4-1.6c0.5-0.6,1-1.2,1.6-1.8c1-1.1,2.1-2.2,3.1-3.3
			c1.2-1.2,2.5-2.4,3.7-3.6c0,0,0,0,0,0c1.2-1.1,2.4-2.1,3.6-3.1c0.4-0.3,0.8-0.7,1.2-1c0.7-0.6,1.4-1.1,2.1-1.7
			c0.5-0.4,0.9-0.7,1.4-1c0.7-0.5,1.3-1,2-1.5c0.5-0.4,1.1-0.7,1.6-1.1c0.6-0.4,1.3-0.8,1.9-1.2c0.6-0.4,1.2-0.8,1.9-1.1
			c0.6-0.3,1.1-0.7,1.7-1c0.7-0.4,1.4-0.8,2.1-1.2c0.5-0.3,1-0.5,1.5-0.8c0.8-0.4,1.6-0.8,2.4-1.2c0.4-0.2,0.8-0.4,1.3-0.6
			c0.9-0.4,1.8-0.8,2.7-1.2c0.3-0.2,0.7-0.3,1-0.5c1-0.4,2-0.8,3-1.2c0.3-0.1,0.5-0.2,0.8-0.3c1.1-0.4,2.2-0.8,3.3-1.2
			c0.2-0.1,0.4-0.1,0.6-0.2c1.2-0.4,2.4-0.8,3.6-1.1c0.1,0,0.2-0.1,0.4-0.1c1.3-0.4,2.6-0.7,3.8-1c0,0,0.1,0,0.1,0
			c5.4-1.3,11-2.1,16.6-2.5c0,0,0,0,0,0c2.2-0.1,4.4-0.2,6.6-0.2H266c1.1,0,2.3,0,3.4,0.1c0.6,0,1.3,0,1.9,0.1
			c0.4,0,0.9,0.1,1.3,0.1c22.7,1.5,44,10.5,61.1,26c1.2,1.1,2.5,2.3,3.7,3.5c0.5,0.5,1,1,1.5,1.6c5.4,5.7,10.1,11.8,14.1,18.4
			l-1.9,1.1l-20,11.4h28.3l20-11.4l2-1.2l17.8-10.2l10.5-6l21.4-12.3c-0.8-1.5-1.5-3.1-2.3-4.6c-0.4-0.7-0.7-1.4-1.1-2
			c-0.3-0.6-0.7-1.3-1-1.9c-1-1.7-1.9-3.4-2.9-5.1c-0.3-0.6-0.7-1.1-1.1-1.7c-0.7-1.1-1.3-2.2-2-3.3c-0.5-0.8-1-1.6-1.6-2.3
			c-0.6-0.8-1.1-1.7-1.7-2.5c-0.6-0.9-1.3-1.8-1.9-2.7c-0.5-0.7-1-1.4-1.5-2.1c-0.7-1-1.5-1.9-2.2-2.9c-0.4-0.6-0.9-1.2-1.3-1.8
			c-0.8-1-1.6-2-2.5-3c-0.4-0.5-0.8-1-1.2-1.5c-0.9-1-1.8-2-2.6-3.1c-0.4-0.5-0.8-0.9-1.2-1.4c-1-1.1-2-2.1-2.9-3.2
			c-0.3-0.4-0.7-0.7-1-1.1c-1-1.1-2.1-2.2-3.2-3.3c-0.3-0.3-0.6-0.6-0.9-0.9c-1.1-1.1-2.3-2.2-3.4-3.3c-0.3-0.2-0.5-0.5-0.8-0.7
			c-1.2-1.1-2.5-2.2-3.7-3.3c-0.2-0.2-0.4-0.4-0.6-0.5c-1.3-1.1-2.6-2.2-4-3.3c-0.2-0.1-0.3-0.3-0.5-0.4c-1.4-1.1-2.8-2.2-4.2-3.3
			c-0.1-0.1-0.2-0.2-0.4-0.3c-1.5-1.1-3-2.2-4.5-3.3c-0.1-0.1-0.2-0.1-0.2-0.2c-1.6-1.1-3.1-2.2-4.7-3.3c0,0,0,0-0.1,0
			c-27.5-18.5-60.3-29.7-95.5-30.9c0,0,0,0,0,0c-0.3,0-0.5,0-0.8,0c-0.7,0-1.4,0-2,0C268.2,0,267.1,0,266,0h-15.1
			c-2.3,0-4.7,0-7,0.1h0c-72.6,2.8-134.7,48.3-161.8,112l49.1,28.5C130.9,141,130.7,141.4,130.6,141.8z"/>
		<linearGradient id="SVGID_2_" gradientUnits="userSpaceOnUse" x1="65.0055" y1="314.8827" x2="449.2911" y2="314.8827">
			<stop  offset="0" style="stop-color:#3F56A7"/>
			<stop  offset="1" style="stop-color:#8ECCD8"/>
		</linearGradient>
		<path class="st3" d="M449.3,181.2h-56.6H367h-46.2h-25.7h-19.3h-25.7v82.3h25.7h27.6H317h12.1h13.6h0.3c-1.8,2.1-3.7,4.2-5.7,6.2
			c-17.9,17.9-41.2,28.3-66,29.6c-1.8,0.1-3.5,0.1-5.3,0.1h-15.1c-1.6,0-3.1,0-4.7-0.1c-0.5,0-0.9-0.1-1.4-0.1
			c-1.1-0.1-2.3-0.2-3.4-0.3c-0.5,0-0.9-0.1-1.4-0.1c-1.2-0.1-2.4-0.3-3.6-0.5c-0.3,0-0.6-0.1-1-0.1c-3.2-0.5-6.3-1.1-9.4-1.9
			c-0.2,0-0.3-0.1-0.5-0.1c-1.4-0.4-2.8-0.8-4.2-1.2c-0.2-0.1-0.4-0.1-0.6-0.2c-1.5-0.5-3-1-4.4-1.5c0,0,0,0,0,0
			c-1.6-0.6-3.1-1.2-4.7-1.9c-1.3-0.6-2.6-1.2-3.9-1.8c-0.3-0.1-0.6-0.3-0.8-0.4c-1.2-0.6-2.4-1.2-3.6-1.8c-0.3-0.1-0.5-0.3-0.8-0.4
			c-1.1-0.6-2.1-1.2-3.1-1.8c-0.3-0.2-0.7-0.4-1-0.6c-1-0.6-1.9-1.2-2.9-1.9c-0.2-0.2-0.5-0.3-0.7-0.5c-0.2-0.1-0.3-0.2-0.5-0.3
			c-1.1-0.8-2.2-1.5-3.3-2.3c-0.1-0.1-0.2-0.1-0.2-0.2c-0.1-0.1-0.2-0.2-0.3-0.3c-1-0.8-2.1-1.6-3.1-2.4c-0.4-0.3-0.8-0.7-1.2-1
			c-0.8-0.7-1.5-1.3-2.3-2c-0.4-0.3-0.7-0.6-1.1-1c-1.1-1-2.2-2-3.2-3.1c-3.7-3.7-7-7.6-10-11.7c-2.6-3.5-4.9-7.1-7-10.8h-28.3
			c2.1,3.7,4.4,7.3,7,10.8c0.3,0.3,0.5,0.7,0.8,1c-0.1,0.1-0.2,0.1-0.3,0.2c-0.2,0.1-0.3,0.2-0.5,0.3c-0.2,0.1-0.3,0.2-0.5,0.3
			c-0.5,0.3-1.1,0.6-1.6,0.9c0,0-0.1,0-0.1,0.1c-0.3,0.2-0.7,0.4-1,0.6c-1.7,1-3.4,1.9-4.9,2.8c-0.7,0.4-1.3,0.7-1.9,1.1L65,303.8
			v144.8h25.7h56.6v-99.2c8.1,5.6,16.7,10.5,25.7,14.8c23.7,11.2,50.1,17.5,77.9,17.5H266c1.8,0,3.5-0.1,5.3-0.1
			c75.7-2.2,140.2-50.8,166-118.1c7.7-20.2,12-42.2,12-65.1v-10.8v-4.3C449.3,182.6,449.3,181.9,449.3,181.2z"/>
	</g>
	<path class="st4" d="M67.9,471.6c-1.3-1.5-2.9-2.7-4.7-3.6c-1.8-0.9-3.8-1.4-5.9-1.4H36.7v49.7h4.9V498h16.1c2.1,0,4.1-0.4,5.8-1.3
		c1.7-0.9,3.3-2.1,4.5-3.5c1.3-1.4,2.2-3.1,2.9-5c0.7-1.9,1-3.9,1-5.9c0-1.9-0.4-3.8-1.1-5.7C70.2,474.7,69.2,473,67.9,471.6z
		 M66.5,486.5c-0.5,1.4-1.1,2.6-2,3.6c-0.8,1-1.9,1.9-3,2.5c-1.2,0.6-2.5,0.9-4,0.9H41.6V471h15.5c1.4,0,2.6,0.3,3.9,0.9
		c1.2,0.6,2.3,1.4,3.2,2.4c0.9,1,1.6,2.2,2.2,3.6c0.5,1.4,0.8,2.8,0.8,4.4C67.2,483.7,66.9,485.2,66.5,486.5z"/>
	<path class="st4" d="M117.2,474.3c-2-2.4-4.5-4.3-7.3-5.8c-2.9-1.5-6-2.2-9.5-2.2c-3.3,0-6.4,0.7-9.2,2.1c-2.8,1.4-5.3,3.2-7.4,5.6
		c-2.1,2.3-3.7,5-4.9,8c-1.2,3-1.8,6.2-1.8,9.5c0,3.2,0.6,6.3,1.7,9.3c1.1,3,2.7,5.7,4.8,8.1c2.1,2.4,4.5,4.2,7.4,5.7
		c2.9,1.4,6,2.1,9.5,2.1c3.3,0,6.4-0.7,9.2-2.1c2.8-1.4,5.3-3.2,7.4-5.5c2.1-2.3,3.7-5,4.9-8c1.2-3,1.8-6.2,1.8-9.5
		c0-3.1-0.6-6.2-1.7-9.2C120.8,479.3,119.2,476.6,117.2,474.3z M117.4,499c-0.9,2.5-2.1,4.7-3.7,6.6c-1.6,2-3.5,3.5-5.8,4.8
		c-2.3,1.2-4.8,1.8-7.6,1.8c-2.8,0-5.2-0.6-7.5-1.7c-2.2-1.1-4.2-2.7-5.8-4.6c-1.6-1.9-2.9-4.2-3.8-6.6c-0.9-2.5-1.3-5.1-1.3-7.8
		c0-2.6,0.4-5.1,1.3-7.6c0.9-2.5,2.1-4.7,3.7-6.6c1.6-2,3.5-3.5,5.8-4.7c2.3-1.2,4.8-1.8,7.6-1.8c2.7,0,5.2,0.6,7.4,1.7
		c2.2,1.1,4.2,2.7,5.8,4.6c1.6,1.9,2.9,4.1,3.8,6.6c0.9,2.5,1.4,5.1,1.4,7.8C118.7,494,118.2,496.6,117.4,499z"/>
	<polygon class="st4" points="170.6,510.6 161,488.2 169.7,467 165,467 158,484.6 151,467 146.4,467 155,488.2 145.6,510.6 
		127.5,466.6 122.3,466.6 143.3,516.3 147.5,516.3 158,491.8 168.5,516.3 172.8,516.3 193.9,466.6 188.6,466.6 	"/>
	<polygon class="st4" points="203.2,493 227.5,493 227.5,488.9 203.2,488.9 203.2,471 231,471 231,466.6 198.3,466.6 198.3,516.3 
		231.7,516.3 231.7,512 203.2,512 	"/>
	<path class="st4" d="M267.5,495.3c1.4-0.9,2.5-2,3.5-3.4c1-1.3,1.7-2.8,2.2-4.5c0.5-1.7,0.8-3.4,0.8-5.2c0-1.9-0.4-3.8-1.1-5.7
		c-0.7-1.9-1.7-3.5-3-5c-1.3-1.5-2.9-2.7-4.7-3.6c-1.8-0.9-3.8-1.4-5.9-1.4h-21v49.7h4.9V498h14.7l11.7,18.3h5.5L263,497.1
		C264.7,496.8,266.2,496.2,267.5,495.3z M243.2,493.6V471h15.8c1.4,0,2.6,0.3,3.9,0.9c1.2,0.6,2.3,1.4,3.2,2.4
		c0.9,1,1.6,2.2,2.2,3.6c0.5,1.4,0.8,2.8,0.8,4.3c0,1.5-0.2,2.9-0.7,4.3c-0.5,1.4-1.1,2.6-2,3.6s-1.9,1.9-3,2.6
		c-1.2,0.6-2.5,0.9-4,0.9H243.2z"/>
	<path class="st5" d="M110.1,144.8l2.5,1.4l13.4,7.7c1.3-4.2,2.8-8.2,4.6-12.2c0.2-0.4,0.4-0.8,0.6-1.2
		c4.9-10.5,11.7-20.1,20.2-28.6c2.4-2.4,5-4.7,7.6-6.9c18-14.8,40.3-22.9,63.7-22.9h15.1c1.1,0,2.3,0,3.4,0.1c0.6,0,1.3,0,1.9,0.1
		c0.4,0,0.9,0.1,1.3,0.1c22.7,1.5,44,10.5,61.1,26c1.2,1.1,2.5,2.3,3.7,3.5c0.5,0.5,1,1,1.5,1.6c8.8,9.1,15.7,19.6,20.4,30.9
		l20-11.4l1.9-1.1l28.4-16.3l21.4-12.3c-0.8-1.5-1.5-3.1-2.3-4.6c-0.4-0.7-0.7-1.4-1.1-2c-0.3-0.6-0.7-1.3-1-1.9
		c-30.4-54.8-88-92.5-154.2-94.8c-0.3,0-0.5,0-0.8,0c-0.7,0-1.4,0-2,0C240,0,238.8,0,237.7,0h-15.1C147,0,81.7,46.4,53.8,112.1
		l49.3,28.6L110.1,144.8z"/>
	<path class="st5" d="M421,181.2h-56.6h-25.7h-46.2h-25.7h-19.3h-25.7v82.3h25.7h27.6h13.6h12.1h13.6h0.3c-1.8,2.1-3.7,4.2-5.7,6.2
		c-17.9,17.9-41.2,28.3-66,29.6c-1.8,0.1-3.5,0.1-5.3,0.1h-15.1c-13.7,0-27-2.8-39.4-8.1c-1.3-0.6-2.6-1.2-3.9-1.8
		c-0.3-0.1-0.6-0.3-0.8-0.4c-1.2-0.6-2.5-1.2-3.7-1.9c-0.2-0.1-0.4-0.2-0.6-0.4c-1.1-0.6-2.2-1.3-3.3-1.9c-0.2-0.1-0.4-0.2-0.6-0.4
		c-1.2-0.7-2.4-1.5-3.5-2.3c-0.3-0.2-0.5-0.4-0.8-0.5c-1.2-0.8-2.3-1.6-3.5-2.5c0,0-0.1-0.1-0.1-0.1c-1.1-0.8-2.2-1.7-3.3-2.6
		c-0.3-0.3-0.7-0.6-1-0.9c-0.8-0.7-1.6-1.4-2.5-2.1c-0.3-0.3-0.7-0.6-1-0.9c-1.1-1-2.2-2-3.2-3.1c-3.7-3.7-7-7.6-10-11.7
		c-2.6-3.5-4.9-7.1-7-10.8l-6.9,4l-7.7,4.4c-2,1.2-4.1,2.4-6.2,3.6c-0.3,0.1-0.5,0.3-0.8,0.4c-0.6,0.4-1.2,0.7-1.8,1
		c0,0-0.1,0-0.1,0.1c-0.3,0.2-0.7,0.4-1,0.6c-2.5,1.4-4.8,2.8-6.7,3.9l-3.4,2l-63,36.6v144.8h25.7H119v-99.2
		c8.1,5.6,16.7,10.5,25.7,14.8c23.7,11.2,50.1,17.5,77.9,17.5h15.1c1.8,0,3.5-0.1,5.3-0.1c75.7-2.2,140.2-50.8,166-118.1
		c7.7-20.2,12-42.2,12-65.1v-10.8v-4.3C421,182.6,421,181.9,421,181.2z"/>
</g>
</svg>
