<?xml version="1.0" encoding="utf-8"?>
<!-- Generator: Adobe Illustrator 23.0.3, SVG Export Plug-In . SVG Version: 6.00 Build 0)  -->
<svg version="1.1" id="Layer_1" xmlns="http://www.w3.org/2000/svg" xmlns:xlink="http://www.w3.org/1999/xlink" x="0px" y="0px"
	 viewBox="0 0 153.86 96" style="enable-background:new 0 0 153.86 96;" xml:space="preserve">
<style type="text/css">
	.st0{fill:none;stroke:#FFFFFF;stroke-width:2;stroke-miterlimit:10;}
	.st1{fill:none;stroke:#FFFFFF;stroke-width:1.7889;stroke-miterlimit:10;}
	.st2{fill:#FFFFFF;}
	.st3{fill:none;stroke:#000000;stroke-width:2;stroke-miterlimit:10;}
	.st4{fill:none;stroke:#000000;stroke-width:1.7889;stroke-miterlimit:10;}
	.st5{fill:none;stroke:#FFFFFF;stroke-miterlimit:10;}
	.st6{fill:none;stroke:#000000;stroke-miterlimit:10;}
	.st7{fill:none;stroke:#FFFFFF;stroke-width:2;stroke-linejoin:round;stroke-miterlimit:10;}
	.st8{fill:none;stroke:#000000;stroke-width:2;stroke-linejoin:round;stroke-miterlimit:10;}
</style>
<g>
	<path class="st2" d="M119.84,46.04H71.35c-0.7,0-1.27-0.57-1.27-1.27v0c0-0.7,0.57-1.27,1.27-1.27h48.49c0.7,0,1.27,0.57,1.27,1.27
		v0C121.11,45.47,120.54,46.04,119.84,46.04z"/>
	<path class="st2" d="M119.84,57.12H71.35c-0.7,0-1.27-0.57-1.27-1.27v0c0-0.7,0.57-1.27,1.27-1.27h48.49c0.7,0,1.27,0.57,1.27,1.27
		v0C121.11,56.55,120.54,57.12,119.84,57.12z"/>
	<path class="st2" d="M119.84,34.97H71.35c-0.7,0-1.27-0.57-1.27-1.27l0,0c0-0.7,0.57-1.27,1.27-1.27h48.49
		c0.7,0,1.27,0.57,1.27,1.27l0,0C121.11,34.4,120.54,34.97,119.84,34.97z"/>
	<g>
		<path class="st2" d="M128.12,18.53c-10.96-0.09-21.99-0.14-33.09-0.15c-10.9-0.01-21.74,0.02-32.51,0.09
			c-0.04,14.3-0.08,28.59-0.12,42.89c-0.17,0.22-0.34,0.44-0.51,0.67c-1.1-0.33-1.99-0.91-2.55-2.36c0-2.86,0-6.04,0-9.22
			c0-3.02,0.1-6.05-0.02-9.07c-0.12-3.11,0.58-6.29-0.64-9.48c-6.02,0-11.88,0-18.04,0c-0.31,0.03-0.84,0.11-1.35,0.44
			c-0.81,0.53-1.13,1.38-1.27,1.78c-0.52,1.46-2.29,6.86-4.58,14.27c-4.4,1.96-5.65,5.9-5.18,10.82c0.26,2.68,0.07,5.41,0.04,8.11
			c-0.02,1.85,0.3,3.5,2.87,4.81c1.78,0.01,3.59,0.01,5.42,0c2.33-0.02,4.62-0.06,6.87-0.12c0.76,4.41,4.6,7.66,9.04,7.71
			c4.39,0.04,8.26-3.07,9.16-7.39c11.19,0,22.46,0,33.94,0c0.35,1.1,1.05,2.76,2.5,4.33c0.78,0.85,2.03,2.2,4.18,2.83
			c2.21,0.64,4.05,0.12,4.45,0c1.89-0.57,3-1.73,4.03-2.81c0.79-0.83,1.95-2.25,2.83-4.38c2.04,0,4.08,0,6.09,0
			c0.02,0.21,0.21,1.61,1.46,2.44c1.06,0.71,2.48,0.72,3.64,0.05c0.26-0.21,0.58-0.53,0.87-0.95c0.23-0.33,0.38-0.64,0.49-0.9
			c0-1.74,0-3.48-0.01-5.21c0.32-0.23,0.8-0.62,1.23-1.23c0.49-0.71,0.67-1.39,0.75-1.8C128.11,49.31,128.12,33.92,128.12,18.53z
			 M39.59,38.88c3.3,0,6.4,0,9.92,0c0.02,2.94,0.04,5.88,0.06,8.81c-4.21,0.01-8.41,0.01-12.62,0.02
			C37.83,44.77,38.71,41.83,39.59,38.88z M45.94,64.64c-1.95,1.91-2.37,4.2-2.48,4.98c-4.05,0.12-7.98,0.43-11.68-0.1
			c-1.35-1.17-1.35-2.36-0.82-3.86c1.94-0.85,4.88,0.13,6.11-2.65c0.65-1.42,0.37-2.71-0.71-3.84c-1.54-1.48-3.84-0.22-5.38-1.54
			c-0.09-4.3,0.08-4.56,4.88-7.36c2.17-0.06,4.37-0.09,6.6-0.11c2.36-0.02,4.68-0.02,6.96,0.01c0.17,0.63,0.2,1.15,0.2,1.51
			c0,0.67,0,1.16-0.34,1.55c-0.29,0.33-0.69,0.43-0.91,0.46c-0.65,0.01-1.18,0.01-1.56,0c-1.23-0.03-1.63-0.09-2.08,0.19
			c-0.12,0.08-0.6,0.38-0.64,0.9c-0.03,0.43,0.25,0.86,0.71,1.12c1.12,0.02,2.24,0.04,3.35,0.05c0.09,0,0.78,0.05,1.2,0.64
			c0.33,0.46,0.29,0.95,0.27,1.08c0.06,0.6,0.1,1.24,0.11,1.93c0.01,1.08-0.05,2.07-0.16,2.94C48.81,62.76,47.31,63.3,45.94,64.64z
			 M57.99,73.28c-0.22,0.45-0.58,1.07-1.14,1.7c-0.26,0.3-0.8,0.9-1.58,1.35c-1.73,0.99-3.6,0.61-4.12,0.5
			c-0.62-0.13-2.16-0.43-3.32-1.76c-1.32-1.52-1.64-4.76-0.66-6.71c0.51-1.03,1.21-1.64,1.5-1.88c1.61-1.31,4.09-1.83,6.26-0.87
			c1.86,0.83,2.7,2.42,2.95,2.94C58.38,70.09,58.39,71.64,57.99,73.28z M62.39,69.32c-0.22,0-0.44,0.01-0.66,0.01
			c-0.27-0.83-1.24-3.48-4.02-5.3c-2.22-1.46-4.41-1.62-5.35-1.64c-0.01-8.43-0.02-16.85-0.04-25.28c-2.98-0.01-5.96-0.02-8.95-0.03
			c-1.04,0.17-1.84-0.59-1.84-1.26c0-0.61,0.69-1.3,1.64-1.27c1.95-0.03,3.92-0.05,5.92-0.05c2.65,0,5.26,0.01,7.84,0.06
			c0,9.38,0,18.37,0,26.72c0.24,0.28,0.48,0.56,0.72,0.84c0.66,0.53,1.33,1.07,2,1.62c0.81,0.66,1.62,1.32,2.41,1.98
			c0.14,0.37,0.28,0.84,0.36,1.39C62.58,68.01,62.5,68.78,62.39,69.32z M66.28,21.05h58.24c0.66,0,1.19,0.53,1.19,1.19
			c0,0.66-0.53,1.19-1.19,1.19H66.28c-0.66,0-1.19-0.53-1.19-1.19C65.08,21.59,65.62,21.05,66.28,21.05z M95.74,69.47
			c-9.91,0-19.82,0-29.82,0c-0.21-0.39-0.56-0.77-0.62-1.19c-0.06-0.42,0.17-0.88,0.34-1.59c10.39,0,20.77,0,31.28,0
			C96.56,67.54,96.2,68.38,95.74,69.47z M107.36,76.43c-1.79,0.58-3.64,0.69-5.47,0.11c-3.83-3.29-4.46-6.72-1.79-9.58
			c2.1-2.25,6.24-2.35,8.55-0.2C111.54,69.44,111.09,72.89,107.36,76.43z M120,69.29c-0.35,0.48-0.91,0.42-3.07,0.53
			c-2.15,0.11-2.65,0.23-3.27-0.2c-0.2-0.14-0.67-0.51-0.87-1.16c-0.02-0.07-0.32-1.05,0.15-1.67c0.41-0.54,1.07-0.37,3.12-0.42
			c2.55-0.06,3.54-0.36,3.99,0.28c0.22,0.32,0.24,0.76,0.25,1.18C120.3,68.17,120.32,68.85,120,69.29z M125.63,63.67
			c-3.86,0.7-7.8,0.22-11.56,0.24c-8.25-6.09-10.95-6.11-19.42-0.09c-9.75,0-19.27,0-29.32,0c-0.08-12.69-0.15-25.39-0.23-38.08
			c20.05-0.04,40.1-0.09,60.15-0.13C125.38,38.29,125.5,50.98,125.63,63.67z"/>
		<path class="st2" d="M106.64,67.62c-0.87-0.54-1.79-0.53-2.17-0.53c-0.36,0.01-1.39,0.03-2.32,0.69
			c-1.65,1.16-1.65,3.31-1.65,3.54c0.02,0.25,0.23,2.19,1.85,3.15c0.95,0.56,1.93,0.52,2.33,0.5c0.38-0.02,1.32-0.09,2.18-0.7
			c1.55-1.12,1.57-3.13,1.57-3.38C108.41,70.64,108.26,68.61,106.64,67.62z"/>
		<path class="st2" d="M51.39,67.18c-0.25,0.07-0.95,0.23-1.57,0.85c-1.06,1.05-1.31,2.81-0.68,4.54c0.9,1.59,2.38,2.57,3.79,2.42
			c0.9-0.1,1.56-0.62,1.86-0.87c1.51-1.23,1.98-2.98,1.23-4.6C55.17,67.68,53.21,66.69,51.39,67.18z"/>
	</g>
</g>
</svg>
