<?xml version="1.0" encoding="utf-8"?>
<!-- Generator: Adobe Illustrator 23.0.3, SVG Export Plug-In . SVG Version: 6.00 Build 0)  -->
<svg version="1.1" id="Layer_1" xmlns="http://www.w3.org/2000/svg" xmlns:xlink="http://www.w3.org/1999/xlink" x="0px" y="0px"
	 viewBox="0 0 210 96" style="enable-background:new 0 0 210 96;" xml:space="preserve">
<style type="text/css">
	.st0{fill:none;stroke:#FFFFFF;stroke-width:2;stroke-miterlimit:10;}
	.st1{fill:none;stroke:#FFFFFF;stroke-width:1.7889;stroke-miterlimit:10;}
	.st2{fill:#FFFFFF;}
	.st3{fill:none;stroke:#000000;stroke-width:2;stroke-miterlimit:10;}
	.st4{fill:none;stroke:#000000;stroke-width:1.7889;stroke-miterlimit:10;}
	.st5{fill:none;stroke:#FFFFFF;stroke-miterlimit:10;}
	.st6{fill:none;stroke:#000000;stroke-miterlimit:10;}
	.st7{fill:none;stroke:#FFFFFF;stroke-width:2;stroke-linejoin:round;stroke-miterlimit:10;}
	.st8{fill:none;stroke:#000000;stroke-width:2;stroke-linejoin:round;stroke-miterlimit:10;}
</style>
<g>
	<path class="st0" d="M46.25,70.51h20.74c0-7.04,0-14.08,0-21.13c0-0.98,0-1.96,0-2.93V34.13H38.93v12.95
		c-2.72,0.06-5.45,0.12-8.17,0.18c-3.86,1.3-7.73,2.59-11.59,3.89c0,6.46,0,12.91,0,19.36h8.59"/>
	<rect x="66.99" y="61.12" class="st0" width="22.87" height="9.39"/>
	<rect x="89.86" y="59.13" class="st0" width="13.37" height="13.37"/>
	<rect x="103.23" y="62.04" class="st0" width="17.74" height="6.69"/>
	<rect x="43.08" y="38.75" class="st0" width="9.79" height="9.79"/>
	<rect x="55.73" y="38.75" class="st0" width="7.18" height="9.79"/>
	<circle class="st0" cx="36.96" cy="71.78" r="9.29"/>
	<circle class="st0" cx="36.96" cy="71.78" r="5"/>
	<circle class="st0" cx="138.04" cy="71.78" r="9.29"/>
	<circle class="st0" cx="138.04" cy="71.78" r="5"/>
	<circle class="st0" cx="159.12" cy="71.78" r="9.29"/>
	<circle class="st0" cx="159.12" cy="71.78" r="5"/>
	<path class="st0" d="M153.37,64.49c-3.24-0.03-6.48-0.07-9.72-0.1"/>
	<path class="st0" d="M130.69,66.11c-3.24,3.01-6.48,6.02-9.72,9.03v-8.11l10.17-7.9h34.49L176,67.18c0,0,0,0,0,0
		c0,0,0.15,0.16,0.44,0.47c-0.15,2.5-0.29,4.99-0.44,7.49c-2.85-2.49-5.7-4.98-8.55-7.47"/>
	
		<rect x="92.39" y="25.53" transform="matrix(0.9571 0.2899 -0.2899 0.9571 16.7123 -38.2211)" class="st0" width="89.97" height="23.54"/>
	<line class="st0" x1="103.23" y1="39.26" x2="97.18" y2="59.13"/>
	<line class="st0" x1="61.35" y1="28.73" x2="61.35" y2="33.47"/>
	<line class="st0" x1="32.44" y1="41.06" x2="32.44" y2="47.22"/>
	<g>
		<line class="st0" x1="101.42" y1="18.36" x2="97.03" y2="32.51"/>
		<line class="st0" x1="108.27" y1="20.49" x2="103.87" y2="34.64"/>
		<line class="st0" x1="115.12" y1="22.62" x2="110.72" y2="36.77"/>
		<line class="st0" x1="121.97" y1="24.75" x2="117.57" y2="38.9"/>
		<line class="st0" x1="128.82" y1="26.88" x2="124.42" y2="41.03"/>
		<line class="st0" x1="135.66" y1="29.01" x2="131.27" y2="43.16"/>
		<line class="st0" x1="142.51" y1="31.14" x2="138.11" y2="45.29"/>
		<line class="st0" x1="149.36" y1="33.26" x2="144.96" y2="47.41"/>
		<line class="st0" x1="156.21" y1="35.39" x2="151.81" y2="49.54"/>
		<line class="st0" x1="163.05" y1="37.52" x2="158.66" y2="51.67"/>
		<line class="st0" x1="169.9" y1="39.65" x2="165.5" y2="53.8"/>
		<line class="st0" x1="176.75" y1="41.78" x2="172.35" y2="55.93"/>
	</g>
</g>
</svg>
