<?xml version="1.0" encoding="utf-8"?>
<!-- Generator: Adobe Illustrator 23.0.3, SVG Export Plug-In . SVG Version: 6.00 Build 0)  -->
<svg version="1.1" id="Layer_1" xmlns="http://www.w3.org/2000/svg" xmlns:xlink="http://www.w3.org/1999/xlink" x="0px" y="0px"
	 viewBox="0 0 164.67 95.94" style="enable-background:new 0 0 164.67 95.94;" xml:space="preserve">
<style type="text/css">
	.st0{fill:none;stroke:#FFFFFF;stroke-width:2;stroke-miterlimit:10;}
	.st1{fill:none;stroke:#FFFFFF;stroke-width:1.7889;stroke-miterlimit:10;}
	.st2{fill:#FFFFFF;}
	.st3{fill:none;stroke:#000000;stroke-width:2;stroke-miterlimit:10;}
	.st4{fill:none;stroke:#000000;stroke-width:1.7889;stroke-miterlimit:10;}
	.st5{fill:none;stroke:#FFFFFF;stroke-miterlimit:10;}
	.st6{fill:none;stroke:#000000;stroke-miterlimit:10;}
	.st7{fill:none;stroke:#FFFFFF;stroke-width:2;stroke-linejoin:round;stroke-miterlimit:10;}
	.st8{fill:none;stroke:#000000;stroke-width:2;stroke-linejoin:round;stroke-miterlimit:10;}
</style>
<g>
	<path class="st0" d="M28.24,65.19h-3.97c-0.31-7.17-0.63-14.33-0.94-21.5c5.33-5.7,10.67-11.41,16-17.11c6.25,0,12.5,0,18.75,0
		v38.61"/>
	<rect x="45.21" y="31.92" class="st0" width="9.36" height="9.36"/>
	<polygon class="st7" points="40.8,41.28 31.44,41.28 40.8,31.92 	"/>
	<circle class="st0" cx="43.15" cy="68.47" r="14.92"/>
	<circle class="st0" cx="43.15" cy="68.47" r="8.02"/>
	<circle class="st0" cx="121.03" cy="68.47" r="14.92"/>
	<circle class="st0" cx="121.03" cy="68.47" r="8.02"/>
	<line class="st0" x1="106.36" y1="64.7" x2="96.65" y2="64.7"/>
	<polyline class="st0" points="129.05,55.52 139.32,55.52 139.32,64.7 135.46,64.7 	"/>
	<polyline class="st0" points="73.44,64.7 58.07,64.7 58.07,55.52 113.62,55.52 	"/>
	<rect x="73.44" y="55.83" class="st0" width="23.21" height="12.94"/>
	<path class="st0" d="M148.08,30.26c-6.59-2.58-13.17-5.16-19.76-7.74c-15.81,1.48-31.61,2.97-47.42,4.45
		c-5.81-3.75-11.63-7.5-17.44-11.25c-12.16,0-24.31,0-36.47,0c0,1.87,0,3.75,0,5.62c12-0.05,24-0.11,36-0.16
		c-0.02,20.33-0.04,30.5-0.04,30.5c0,0,0,0,0,0c23.68-0.28,47.36-0.56,71.04-0.83c6.33-4.78,12.67-9.56,19-14.33
		C151.35,34.43,149.72,32.35,148.08,30.26z"/>
	<line class="st0" x1="76.65" y1="32.8" x2="76.65" y2="50.69"/>
	<line class="st0" x1="99.24" y1="32.8" x2="99.24" y2="50.69"/>
	<line class="st0" x1="119.32" y1="32.8" x2="119.32" y2="50.69"/>
</g>
</svg>
