<?xml version="1.0" encoding="utf-8"?>
<!-- Generator: Adobe Illustrator 23.0.3, SVG Export Plug-In . SVG Version: 6.00 Build 0)  -->
<svg version="1.1" id="Layer_1" xmlns="http://www.w3.org/2000/svg" xmlns:xlink="http://www.w3.org/1999/xlink" x="0px" y="0px"
	 viewBox="0 0 152.54 98.4" style="enable-background:new 0 0 152.54 98.4;" xml:space="preserve">
<style type="text/css">
	.st0{fill:none;stroke:#FFFFFF;stroke-width:2;stroke-miterlimit:10;}
	.st1{fill:none;stroke:#FFFFFF;stroke-width:1.7889;stroke-miterlimit:10;}
	.st2{fill:#FFFFFF;}
	.st3{fill:none;stroke:#000000;stroke-width:2;stroke-miterlimit:10;}
	.st4{fill:none;stroke:#000000;stroke-width:1.7889;stroke-miterlimit:10;}
	.st5{fill:none;stroke:#FFFFFF;stroke-miterlimit:10;}
	.st6{fill:none;stroke:#000000;stroke-miterlimit:10;}
	.st7{fill:none;stroke:#FFFFFF;stroke-width:2;stroke-linejoin:round;stroke-miterlimit:10;}
	.st8{fill:none;stroke:#000000;stroke-width:2;stroke-linejoin:round;stroke-miterlimit:10;}
</style>
<g>
	<path class="st0" d="M38.12,78.66H23.04c1.03-12.3,2.05-24.6,3.08-36.9c0.32-3.88,3.57-6.87,7.47-6.87h22.01v43.77h-2.72"/>
	<line class="st1" x1="117.4" y1="78.8" x2="111.19" y2="78.8"/>
	<polyline class="st1" points="95.97,78.66 55.59,78.66 55.59,67.44 135.57,67.44 135.57,78.66 132.16,78.66 	"/>
	<path class="st0" d="M48.3,56.78c-2.06-0.19-4.12-0.37-6.17-0.56c-4.12,2.24-8.23,4.49-12.35,6.73c0.56-6.57,1.12-13.14,1.68-19.71
		c5.61,0.02,11.22,0.05,16.84,0.07V56.78z"/>
	<polyline class="st0" points="23.71,69.12 28.76,69.12 28.76,74.17 23.71,74.17 	"/>
	<circle class="st0" cx="45.49" cy="82.49" r="8.31"/>
	<circle class="st0" cx="45.49" cy="82.49" r="4.47"/>
	<circle class="st0" cx="103.35" cy="82.49" r="8.31"/>
	<circle class="st0" cx="103.35" cy="82.49" r="4.47"/>
	<path class="st0" d="M132.16,78.66c0.59,1.15,0.93,2.45,0.93,3.83c0,4.59-3.72,8.31-8.31,8.31c-4.59,0-8.31-3.72-8.31-8.31
		s3.72-8.31,8.31-8.31C127.99,74.17,130.78,76,132.16,78.66"/>
	<circle class="st0" cx="124.78" cy="82.49" r="4.47"/>
	<path class="st1" d="M135.57,67.44H59.8V30.96c7.28,0,14.55,0,21.83,0c2.26,3.55,4.52,7.09,6.78,10.64
		c6.59,3.55,13.18,7.09,19.76,10.64c8.32,0.25,16.64,0.51,24.97,0.76C133.95,57.81,134.76,62.63,135.57,67.44z"/>
	<line class="st0" x1="77.37" y1="56.78" x2="77.37" y2="67.44"/>
	<line class="st0" x1="97.71" y1="56.78" x2="97.71" y2="67.44"/>
	<line class="st0" x1="115.86" y1="56.78" x2="115.86" y2="67.44"/>
	<polyline class="st1" points="66.82,30.96 107.82,14.97 111.19,22.96 109.19,29.28 	"/>
	<line class="st1" x1="117.4" y1="25.07" x2="111.19" y2="22.96"/>
	<polyline class="st2" points="109.37,27.2 104.1,33.93 114.79,41.74 109.86,27.2 	"/>
	<polyline class="st2" points="116.03,24.02 124.19,24.72 124.16,36.98 115.75,24.35 	"/>
</g>
</svg>
