<?xml version="1.0" encoding="utf-8"?>
<!-- Generator: Adobe Illustrator 21.0.0, SVG Export Plug-In . SVG Version: 6.00 Build 0)  -->
<svg version="1.1" id="Слой_1" xmlns="http://www.w3.org/2000/svg" xmlns:xlink="http://www.w3.org/1999/xlink" x="0px" y="0px"
	 viewBox="0 0 231.8 231.8" style="enable-background:new 0 0 231.8 231.8;" xml:space="preserve">
<style type="text/css">
	.st0{fill:#FBD129;}
</style>
<g>
	<path class="st0" d="M115.9,0C51.9,0,0,51.9,0,115.9c0,64,51.9,115.9,115.9,115.9c64,0,115.9-51.9,115.9-115.9
		C231.8,51.9,179.9,0,115.9,0L115.9,0z M160.1,59l-16,0c-12.6,0-15,6-15,14.7v19.3h30l0,30.3h-30V201H97.8v-77.7H71.7V93.1h26.1
		V70.8c0-25.9,15.8-40,38.9-40l23.4,0L160.1,59L160.1,59z M160.1,59"/>
</g>
</svg>
