<?xml version="1.0" encoding="utf-8"?>
<!-- Generator: Adobe Illustrator 21.0.0, SVG Export Plug-In . SVG Version: 6.00 Build 0)  -->
<svg version="1.1" id="Слой_1" xmlns="http://www.w3.org/2000/svg" xmlns:xlink="http://www.w3.org/1999/xlink" x="0px" y="0px"
	 viewBox="0 0 231.8 231.8" style="enable-background:new 0 0 231.8 231.8;" xml:space="preserve">
<style type="text/css">
	.st0{fill:#FBD129;}
</style>
<g>
	<path class="st0" d="M115.9,0C51.9,0,0,51.9,0,115.9c0,64,51.9,115.9,115.9,115.9c64,0,115.9-51.9,115.9-115.9
		C231.8,51.9,179.9,0,115.9,0L115.9,0z M72.5,194.4H39.9V89.5h32.6V194.4z M56.2,75.2c-10.4,0-18.9-8.5-18.9-18.9
		c0-10.4,8.5-18.9,18.9-18.9c10.4,0,18.9,8.5,18.9,18.9C75.1,66.7,66.6,75.2,56.2,75.2L56.2,75.2z M194.5,194.4h-32.6v-51
		c0-12.2-0.2-27.8-16.9-27.8c-17,0-19.6,13.2-19.6,26.9v51.8H92.9V89.5h31.2v14.3h0.4c4.3-8.2,15-16.9,30.8-16.9
		c33,0,39.1,21.7,39.1,49.9V194.4z M194.5,194.4"/>
</g>
</svg>
