<?xml version="1.0" encoding="utf-8"?>
<!-- Generator: Adobe Illustrator 21.0.0, SVG Export Plug-In . SVG Version: 6.00 Build 0)  -->
<svg version="1.1" id="Слой_1" xmlns="http://www.w3.org/2000/svg" xmlns:xlink="http://www.w3.org/1999/xlink" x="0px" y="0px"
	 viewBox="0 0 436.4 309.7" style="enable-background:new 0 0 436.4 309.7;" xml:space="preserve">
<style type="text/css">
	.st0{fill:#BEC6CC;}
	.st1{fill:#98A0A8;}
	.st2{fill:#DDE3E8;}
</style>
<g>
	<path class="st0" d="M428.8,6.2L218.2,140.1L7.5,6.2C2.9,10.5,0,16.5,0,23.3v263.1c0,6.8,3,12.9,7.6,17.1l210.6-133.8l216.4,139.9
		h1.8V23.3C436.4,16.5,433.4,10.5,428.8,6.2z"/>
	<path class="st1" d="M23.3,309.7h411.3L287.7,154.8h-139L7.6,303.6C11.8,307.4,17.2,309.7,23.3,309.7z"/>
	<path class="st2" d="M23.3,0C17.2,0,11.7,2.4,7.5,6.2l194.6,204.2c8.8,9.3,23.3,9.3,32.1,0L428.8,6.2c-4.2-3.8-9.7-6.2-15.7-6.2
		H23.3z"/>
</g>
</svg>
