<?xml version="1.0" encoding="utf-8"?>
<!-- Generator: Adobe Illustrator 21.0.0, SVG Export Plug-In . SVG Version: 6.00 Build 0)  -->
<svg version="1.1" id="Слой_1" xmlns="http://www.w3.org/2000/svg" xmlns:xlink="http://www.w3.org/1999/xlink" x="0px" y="0px"
	 viewBox="0 0 435 435" style="enable-background:new 0 0 435 435;" xml:space="preserve">
<style type="text/css">
	.st0{fill:#FFE05F;}
	.st1{fill:#FBD129;}
	.st2{fill:#98A0A8;}
	.st3{fill:#FFFFFF;}
</style>
<g>
	<polygon class="st0" points="435,109.4 435,435 326.3,396.3 297.3,233.6 326.3,70.8 	"/>
	<polygon class="st1" points="326.3,70.8 326.3,396.3 217.5,435 198.2,272.2 217.5,109.4 	"/>
	<polygon class="st0" points="217.5,109.4 217.5,435 108.8,396.3 79.8,233.6 108.8,70.8 	"/>
	<polygon class="st1" points="108.8,70.8 108.8,396.3 0,435 0,109.4 	"/>
	<path class="st2" d="M370.1,98.2c0,78.7-88.8,151.5-88.8,151.5c-5.2,4.3-13.7,4.3-18.9,0c0,0-88.8-72.8-88.8-151.5
		c0-54.2,44-98.2,98.2-98.2S370.1,44,370.1,98.2z"/>
	<path class="st3" d="M271.9,147.6c-27.2,0-49.4-22.2-49.4-49.4s22.2-49.4,49.4-49.4s49.4,22.2,49.4,49.4S299.1,147.6,271.9,147.6z"
		/>
</g>
</svg>
