<?xml version="1.0" encoding="utf-8"?>
<!-- Generator: Adobe Illustrator 21.0.0, SVG Export Plug-In . SVG Version: 6.00 Build 0)  -->
<svg version="1.1" id="Слой_1" xmlns="http://www.w3.org/2000/svg" xmlns:xlink="http://www.w3.org/1999/xlink" x="0px" y="0px"
	 viewBox="0 0 465 465" style="enable-background:new 0 0 465 465;" xml:space="preserve">
<style type="text/css">
	.st0{fill:#FBD129;}
	.st1{fill:#98A0A8;}
	.st2{fill:#FFFFFF;}
</style>
<g>
	<path class="st0" d="M465,117.2C465,52.5,398.9,0,317.4,0C236,0,169.9,52.5,169.9,117.2c0,57.8,52.7,105.9,122.1,115.4h-0.2
		c3.6,22.4-3.1,46.1-20.2,63.3c36.6,0,66.9-27.6,71.5-63.3h-0.2C412.3,223.1,465,175,465,117.2z"/>
	<g>
		<circle class="st1" cx="265.4" cy="117.2" r="10.3"/>
		<circle class="st1" cx="369.5" cy="117.2" r="10.3"/>
		<circle class="st1" cx="317.5" cy="117.2" r="10.3"/>
	</g>
	<path class="st2" d="M317.9,374c-22.3-22.3-46.3-41.1-46.3-41.1l-34.9,34.9L97.3,228.2l34.8-34.9c0,0-18.8-23.9-41.1-46.3
		C68.7,124.8,44.8,106,44.8,106S3,144.4,0.2,174.9c-3.8,40.8,39.4,114.9,107.2,182.7c67.8,67.8,141.9,110.9,182.7,107.2
		c30.5-2.8,68.9-44.6,68.9-44.6S340.2,396.3,317.9,374z"/>
</g>
</svg>
