<?xml version="1.0" encoding="utf-8"?>
<!-- Generator: Adobe Illustrator 21.0.0, SVG Export Plug-In . SVG Version: 6.00 Build 0)  -->
<svg version="1.1" id="Слой_1" xmlns="http://www.w3.org/2000/svg" xmlns:xlink="http://www.w3.org/1999/xlink" x="0px" y="0px"
	 viewBox="0 0 289.7 357.3" style="enable-background:new 0 0 289.7 357.3;" xml:space="preserve">
<style type="text/css">
	.st0{fill:#F8CA15;}
	.st1{fill:#4D59A1;}
</style>
<g>
	<path class="st0" d="M207.3,164.2L161,244.3c-8.9,15.4-23.5,15.4-32.4,0l-46.2-80.1C73.5,148.8,59,123.5,50,108.1l-3.9-6.7H20
		c-17.8,0-25.1,12.6-16.2,28L50,209.5c8.9,15.4,23.5,40.7,32.4,56.1l46.2,80.1c8.9,15.4,23.5,15.4,32.4,0l46.2-80.1
		c8.9-15.4,23.5-40.6,32.4-56.1l46.3-80.1c8.9-15.4,1.6-28-16.2-28h-26.2l-3.9,6.7C230.7,123.5,216.2,148.8,207.3,164.2z"/>
	<path class="st0" d="M112.5,101.4c17.8,0,46.9,0,64.7,0h66.3L285.9,28c8.9-15.4,1.6-28-16.2-28h-92.5c-17.8,0-46.9,0-64.7,0H20
		C2.2,0-5.1,12.6,3.8,28l42.4,73.4H112.5z"/>
	<path class="st1" d="M112.5,101.4H46.2l3.9,6.7c8.9,15.4,23.5,40.6,32.4,56.1l46.2,80.1c8.9,15.4,23.5,15.4,32.4,0l46.2-80.1
		c8.9-15.4,23.5-40.6,32.4-56.1l3.9-6.7h-66.3C159.4,101.4,130.3,101.4,112.5,101.4z"/>
</g>
</svg>
