<?xml version="1.0" encoding="utf-8"?>
<!-- Generator: Adobe Illustrator 21.0.0, SVG Export Plug-In . SVG Version: 6.00 Build 0)  -->
<svg version="1.1" id="Слой_1" xmlns="http://www.w3.org/2000/svg" xmlns:xlink="http://www.w3.org/1999/xlink" x="0px" y="0px"
	 viewBox="0 0 231.8 231.8" style="enable-background:new 0 0 231.8 231.8;" xml:space="preserve">
<style type="text/css">
	.st0{fill-rule:evenodd;clip-rule:evenodd;fill:#FBD129;}
</style>
<g>
	<path class="st0" d="M94.8,141.3c17.4-9,34.6-17.9,52-27c-17.4-9.1-34.7-18.1-52-27.2V141.3z M94.8,141.3"/>
	<path class="st0" d="M115.9,0C51.9,0,0,51.9,0,115.9c0,64,51.9,115.9,115.9,115.9c64,0,115.9-51.9,115.9-115.9
		C231.8,51.9,179.9,0,115.9,0L115.9,0z M194.9,154.6c-2,8.7-9.1,15.1-17.7,16.1c-20.3,2.3-40.8,2.3-61.3,2.3c-20.4,0-41,0-61.3-2.3
		c-8.6-0.9-15.7-7.4-17.7-16.1c-2.9-12.4-2.9-25.9-2.9-38.7c0-12.8,0-26.3,2.9-38.7c2-8.7,9.1-15.1,17.7-16.1
		c20.3-2.3,40.8-2.3,61.3-2.3c20.4,0,41,0,61.3,2.3c8.6,0.9,15.7,7.4,17.7,16.1c2.8,12.4,2.8,25.9,2.8,38.7
		C197.7,128.7,197.7,142.2,194.9,154.6L194.9,154.6z M194.9,154.6"/>
</g>
</svg>
